<?xml version="1.0" standalone="no"?>
<!DOCTYPE svg PUBLIC "-//W3C//DTD SVG 20010904//EN"
 "http://www.w3.org/TR/2001/REC-SVG-20010904/DTD/svg10.dtd">
<svg version="1.0" xmlns="http://www.w3.org/2000/svg"
 width="16pt" height="16pt" viewBox="0 0 16 16"
 preserveAspectRatio="xMidYMid meet">
<metadata>
</metadata>
<g transform="translate(0.000000,16) scale(0.100000,-0.100000)"
fill="#000000" stroke="none">
<path d="M2380 4713 c0 -6 -8 -10 -17 -10 -17 1 -110 -10 -157 -19 -42 -7
-178 -54 -235 -81 -304 -142 -545 -458 -596 -783 -12 -80 -15 -109 -15 -180 0
-126 11 -200 50 -326 92 -300 -16 -602 -278 -777 -58 -38 -125 -66 -272 -112
-289 -90 -527 -308 -651 -595 -94 -220 -108 -447 -44 -720 1 -8 14 -44 28 -80
112 -293 346 -523 640 -629 223 -81 460 -85 692 -10 329 105 581 356 690 686
40 121 53 213 49 348 -3 139 -6 166 -29 255 -1 3 -9 31 -19 62 -52 173 -39
335 41 498 79 161 231 292 398 343 28 8 77 23 110 32 181 53 376 189 506 352
339 426 305 1032 -80 1422 -180 184 -458 310 -693 315 -20 1 -34 4 -31 9 2 4
-1 7 -6 7 -6 0 -11 -5 -11 -10 0 -7 -6 -7 -20 0 -15 8 -20 8 -20 -1 0 -8 -4
-8 -15 1 -8 7 -15 8 -15 3z"/>
<path d="M3679 2462 c-46 -7 -93 -15 -104 -17 -11 -1 -58 -17 -103 -34 -261
-95 -457 -264 -585 -501 -51 -94 -102 -238 -112 -314 -3 -27 -8 -53 -11 -58
-7 -11 -6 -225 1 -263 3 -16 10 -59 16 -94 7 -35 20 -87 31 -115 11 -28 21
-59 23 -69 8 -36 87 -173 140 -242 162 -212 385 -351 649 -406 95 -19 306 -33
306 -19 0 3 8 6 18 6 70 4 194 34 292 74 272 108 509 359 604 640 26 77 28 85
49 205 21 113 11 269 -27 430 -36 152 -163 366 -291 488 -105 101 -286 211
-405 246 -25 7 -56 17 -70 22 -96 31 -292 41 -421 21z"/>
</g>
</svg>
