<?xml version="1.0" encoding="utf-8"?>
<!-- Generator: Adobe Illustrator 22.1.0, SVG Export Plug-In . SVG Version: 6.00 Build 0)  -->
<svg version="1.1" id="Layer_1" xmlns="http://www.w3.org/2000/svg" xmlns:xlink="http://www.w3.org/1999/xlink" x="0px" y="0px"
	 viewBox="0 0 122.3 122.3" style="enable-background:new 0 0 122.3 122.3;" xml:space="preserve">
<style type="text/css">
	.st0{fill:#FFA400;}
	.st1{fill:#FFFFFF;}
</style>
<g id="Group_248" transform="translate(-79.957 -618.631)">
	<g transform="matrix(1, 0, 0, 1, 79.96, 618.63)">
		<path id="Rectangle_1727-2" class="st0" d="M38,0h46.3c21,0,38,17,38,38v46.3c0,21-17,38-38,38H38c-21,0-38-17-38-38V38
			C0,17,17,0,38,0z"/>
	</g>
	<path id="building-solid" class="st1" d="M169.6,710.6h-2.7v-62.3c0-1.8-1.5-3.3-3.3-3.3h-45.9c-1.8,0-3.3,1.5-3.3,3.3l0,0v62.3
		h-2.7c-0.9,0-1.6,0.7-1.6,1.6v2.7h61.3v-2.7C171.2,711.4,170.5,710.6,169.6,710.6z M127.5,655.4c0-0.9,0.7-1.6,1.6-1.6l0,0h5.5
		c0.9,0,1.6,0.7,1.6,1.6l0,0v5.5c0,0.9-0.7,1.6-1.6,1.6c0,0,0,0,0,0h-5.5c-0.9,0-1.6-0.7-1.6-1.6l0,0V655.4z M127.5,668.5
		c0-0.9,0.7-1.6,1.6-1.6c0,0,0,0,0,0h5.5c0.9,0,1.6,0.7,1.6,1.6c0,0,0,0,0,0v5.5c0,0.9-0.7,1.6-1.6,1.6c0,0,0,0,0,0h-5.5
		c-0.9,0-1.6-0.7-1.6-1.6c0,0,0,0,0,0V668.5z M134.6,688.8h-5.5c-0.9,0-1.6-0.7-1.6-1.6v-5.5c0-0.9,0.7-1.6,1.6-1.6h5.5
		c0.9,0,1.6,0.7,1.6,1.6v5.5C136.2,688,135.5,688.8,134.6,688.8L134.6,688.8z M145,710.6h-8.8v-11.5c0-0.9,0.7-1.6,1.6-1.6h5.5
		c0.9,0,1.6,0.7,1.6,1.6V710.6z M153.7,687.1c0,0.9-0.7,1.6-1.6,1.6h-5.5c-0.9,0-1.6-0.7-1.6-1.6v-5.5c0-0.9,0.7-1.6,1.6-1.6h5.5
		c0.9,0,1.6,0.7,1.6,1.6L153.7,687.1z M153.7,674c0,0.9-0.7,1.6-1.6,1.6h-5.5c-0.9,0-1.6-0.7-1.6-1.6c0,0,0,0,0,0v-5.5
		c0-0.9,0.7-1.6,1.6-1.6h5.5c0.9,0,1.6,0.7,1.6,1.6L153.7,674z M153.7,660.9c0,0.9-0.7,1.6-1.6,1.6h-5.5c-0.9,0-1.6-0.7-1.6-1.6
		v-5.5c0-0.9,0.7-1.6,1.6-1.6h5.5c0.9,0,1.6,0.7,1.6,1.6L153.7,660.9z"/>
</g>
</svg>
