<svg xmlns="http://www.w3.org/2000/svg" viewBox="0 0 226.75 139.471">
  <defs>
    <style>
      .cls-1, .cls-4 {
        fill: #ffc107;
      }

      .cls-1, .cls-5 {
        opacity: 0.1;
      }

      .cls-2, .cls-8 {
        opacity: 0.2;
      }

      .cls-3 {
        fill: #3f3d56;
      }

      .cls-6 {
        fill: #f1c0c0;
      }

      .cls-7 {
        fill: #be6f72;
      }

      .cls-9 {
        fill: #fed253;
      }

      .cls-10 {
        fill: #fbbebe;
      }
    </style>
  </defs>
  <g id="undraw_under_construction_46pa" transform="translate(0.02 0)">
    <path id="Path_2281" data-name="Path 2281" class="cls-1" d="M237.821,177.338a46.469,46.469,0,0,1-1.361,11.212q-.458,1.854-1.065,3.631a42.891,42.891,0,0,1-1.717,4.3q-.491,1.063-1.038,2.083a28.022,28.022,0,0,1-2.343,11.26,29.029,29.029,0,0,1-14.088,14.516,29.634,29.634,0,0,1-12.577,2.888H54.118a37.671,37.671,0,0,1-18.947-5.065l-.089-.05q-1.23-.72-2.4-1.525a37.62,37.62,0,0,1-4.923-4.058,36.632,36.632,0,0,1-5.412-6.705,35.781,35.781,0,0,1-5.5-19.1A45.05,45.05,0,0,1,11.07,168.41,44.209,44.209,0,0,1,20,141.352,38.041,38.041,0,0,1,23.8,137.13a35.31,35.31,0,0,1,4.339-3.552,33.765,33.765,0,0,1,3.85-2.31c.556-.283,1.115-.551,1.683-.8.5-.221,1-.427,1.513-.622q.918-.348,1.86-.641t1.858-.512q1.348-.329,2.741-.535c.77-.114,1.54-.193,2.31-.252.612-.046,1.23-.071,1.852-.079h.337c.685,0,1.367.027,2.043.073.071-.142.148-.287.219-.427.27-.514.549-1.026.83-1.527a.048.048,0,0,1,0-.013c.048-.089.1-.175.146-.26.227-.41.464-.816.707-1.219.112-.193.221-.373.335-.554a1.474,1.474,0,0,1,.079-.131q.173-.289.352-.578.891-1.425,1.854-2.8l.164-.235c.1-.142.193-.281.3-.424.266-.372.539-.745.814-1.111.193-.262.385-.522.593-.77q.751-.963,1.54-1.925t1.64-1.9c.077-.087.154-.171.235-.256l.822-.9h0c.04-.042.075-.081.114-.119h0c.1-.106.193-.212.3-.314.441-.468.893-.926,1.348-1.382a73.385,73.385,0,0,1,7.373-6.424c.1-.081.206-.158.308-.235.489-.368.986-.732,1.482-1.09a78.025,78.025,0,0,1,8.55-5.333c.2-.117.412-.227.622-.335a81.626,81.626,0,0,1,8.18-3.766c1.523-.6,3.08-1.169,4.647-1.686,1.043-.343,2.091-.668,3.151-.974Q97.38,90.5,99.9,89.933a89.2,89.2,0,0,1,15.062-2.052q2.31-.117,4.672-.121a89.52,89.52,0,0,1,22.524,2.849.812.812,0,0,0,.7.364h.647c.281.077.56.154.841.235q2.354.678,4.642,1.48l.385.139a82.864,82.864,0,0,1,10.956,4.813,79.062,79.062,0,0,1,9.173,5.668q.676.485,1.332.978.8-.51,1.621-.978a31.885,31.885,0,0,1,6.715-2.863,30.629,30.629,0,0,1,15.062-.589,33.329,33.329,0,0,1,16.876,9.518,39.379,39.379,0,0,1,5.061,6.426c.106.166.212.333.314.5a42.351,42.351,0,0,1,3.223,6.424c.033.083.065.16.094.241a44.483,44.483,0,0,1,1.983,6.42c.023.112.05.221.073.333a46.228,46.228,0,0,1,.947,6.424,1.245,1.245,0,0,0,.015.237q.121,1.677.123,3.388c0,1.02-.035,2.033-.1,3.038,0,.11-.015.223-.025.337-.017.291-.042.578-.067.87a36.531,36.531,0,0,1,4.116,3.883q.841.918,1.629,1.906a40.546,40.546,0,0,1,4.2,6.424A45.084,45.084,0,0,1,237.821,177.338Z" transform="translate(-11.09 -87.76)"/>
    <path id="Path_2282" data-name="Path 2282" class="cls-1" d="M316.784,763.526c0,1.315-4.53,2.547-12.434,3.606H154.836a37.671,37.671,0,0,1-18.947-5.065l-.089-.05a63.153,63.153,0,0,1,11.953-2.3h0l.25-.031c2.5-.306,5.3-.6,8.357-.872a1.9,1.9,0,0,0,.233-.021h0q3.639-.323,7.741-.606c.087,0,.171-.015.258-.019q1.582-.114,3.23-.216h0l.424-.027c8-.5,17.091-.893,26.952-1.155h.012q2.071-.058,4.187-.1,2.353-.056,4.763-.1c1.226-.027,2.468-.046,3.714-.066h.029c5.619-.085,11.426-.127,17.363-.127,14.681,0,28.558.268,40.853.749h.035c1.891.073,3.746.154,5.556.237l1.54.073q3.063.146,5.968.314h0C301.991,759.048,316.784,761.152,316.784,763.526Z" transform="translate(-111.808 -627.662)"/>
    <g id="Group_1101" data-name="Group 1101" class="cls-2" transform="translate(119.602 76.04)">
      <path id="Path_2283" data-name="Path 2283" class="cls-3" d="M674.114,740.223a3.651,3.651,0,0,1-.071.618q-2.01-.32-4.043-.578V740.1a3.248,3.248,0,0,1,.481-1.632,1.791,1.791,0,0,1,3.259.1A3.246,3.246,0,0,1,674.114,740.223Z" transform="translate(-662.769 -688.429)"/>
      <ellipse id="Ellipse_3185" data-name="Ellipse 3185" class="cls-3" cx="2.697" cy="2.06" rx="2.697" ry="2.06" transform="translate(7.253 51.071) rotate(-88.19)"/>
      <ellipse id="Ellipse_3186" data-name="Ellipse 3186" class="cls-3" cx="2.697" cy="2.06" rx="2.697" ry="2.06" transform="translate(7.358 47.775) rotate(-88.19)"/>
      <ellipse id="Ellipse_3187" data-name="Ellipse 3187" class="cls-3" cx="2.697" cy="2.06" rx="2.697" ry="2.06" transform="translate(7.461 44.479) rotate(-88.19)"/>
      <ellipse id="Ellipse_3188" data-name="Ellipse 3188" class="cls-3" cx="2.697" cy="2.06" rx="2.697" ry="2.06" transform="translate(7.564 41.183) rotate(-88.19)"/>
      <path id="Path_2284" data-name="Path 2284" class="cls-4" d="M635.141,498.5a9.553,9.553,0,0,1-.732-1.155l5.44-.718-5.856-.141a9.892,9.892,0,0,1,.06-7.824l7.724,4.322-7.075-5.552a9.872,9.872,0,1,1,15.948,11.551,9.781,9.781,0,0,1,1.068,1.835l-7.14,3.427,7.572-2.277a9.884,9.884,0,0,1-1.891,9.223,9.872,9.872,0,1,1-15.509-.489,9.872,9.872,0,0,1,.385-12.2Z" transform="translate(-632.44 -482.747)"/>
      <path id="Path_2285" data-name="Path 2285" class="cls-5" d="M652.57,598.458a9.819,9.819,0,0,1-2.31,6.033A9.872,9.872,0,1,1,634.75,604C633.486,602.283,652.6,597.351,652.57,598.458Z" transform="translate(-632.44 -576.053)"/>
    </g>
    <g id="Group_1102" data-name="Group 1102" class="cls-2" transform="translate(90.34 76.04)">
      <path id="Path_2286" data-name="Path 2286" class="cls-3" d="M522.114,740.223a3.657,3.657,0,0,1-.071.618q-2.01-.32-4.043-.578V740.1a3.249,3.249,0,0,1,.481-1.632,1.791,1.791,0,0,1,3.259.1A3.246,3.246,0,0,1,522.114,740.223Z" transform="translate(-510.769 -688.429)"/>
      <ellipse id="Ellipse_3189" data-name="Ellipse 3189" class="cls-3" cx="2.697" cy="2.06" rx="2.697" ry="2.06" transform="translate(7.251 51.072) rotate(-88.19)"/>
      <ellipse id="Ellipse_3190" data-name="Ellipse 3190" class="cls-3" cx="2.697" cy="2.06" rx="2.697" ry="2.06" transform="translate(7.356 47.776) rotate(-88.19)"/>
      <ellipse id="Ellipse_3191" data-name="Ellipse 3191" class="cls-3" cx="2.697" cy="2.06" rx="2.697" ry="2.06" transform="translate(7.459 44.48) rotate(-88.19)"/>
      <ellipse id="Ellipse_3192" data-name="Ellipse 3192" class="cls-3" cx="2.697" cy="2.06" rx="2.697" ry="2.06" transform="translate(7.562 41.184) rotate(-88.19)"/>
      <path id="Path_2287" data-name="Path 2287" class="cls-4" d="M483.141,498.5a9.563,9.563,0,0,1-.732-1.155l5.44-.718-5.856-.141a9.891,9.891,0,0,1,.06-7.824l7.724,4.322-7.075-5.552a9.872,9.872,0,1,1,15.948,11.551,9.78,9.78,0,0,1,1.068,1.835l-7.14,3.427,7.572-2.277a9.884,9.884,0,0,1-1.89,9.223,9.872,9.872,0,1,1-15.509-.489,9.872,9.872,0,0,1,.385-12.2Z" transform="translate(-480.44 -482.747)"/>
      <path id="Path_2288" data-name="Path 2288" class="cls-5" d="M500.57,598.458a9.818,9.818,0,0,1-2.31,6.033A9.872,9.872,0,1,1,482.751,604C481.486,602.283,500.6,597.351,500.57,598.458Z" transform="translate(-480.44 -576.053)"/>
    </g>
    <g id="Group_1103" data-name="Group 1103" class="cls-2" transform="translate(159.789 30.264)">
      <path id="Path_2289" data-name="Path 2289" class="cls-3" d="M921.285,740.405a7.176,7.176,0,0,1-.141,1.171q-3.87-.618-7.795-1.105v-.318a6.257,6.257,0,0,1,.928-3.144,3.452,3.452,0,0,1,6.282.193A6.262,6.262,0,0,1,921.285,740.405Z" transform="translate(-899.457 -640.728)"/>
      <ellipse id="Ellipse_3193" data-name="Ellipse 3193" class="cls-3" cx="5.194" cy="3.968" rx="5.194" ry="3.968" transform="translate(13.943 98.28) rotate(-88.19)"/>
      <ellipse id="Ellipse_3194" data-name="Ellipse 3194" class="cls-3" cx="5.194" cy="3.968" rx="5.194" ry="3.968" transform="translate(14.143 91.935) rotate(-88.19)"/>
      <ellipse id="Ellipse_3195" data-name="Ellipse 3195" class="cls-3" cx="5.194" cy="3.968" rx="5.194" ry="3.968" transform="translate(14.345 85.59) rotate(-88.19)"/>
      <ellipse id="Ellipse_3196" data-name="Ellipse 3196" class="cls-3" cx="5.194" cy="3.968" rx="5.194" ry="3.968" transform="translate(14.323 78.97) rotate(-88.282)"/>
      <path id="Path_2290" data-name="Path 2290" class="cls-4" d="M846.371,275.248a19.11,19.11,0,0,1-1.407-2.22l10.473-1.382-11.272-.271a19.04,19.04,0,0,1,.112-15.062l14.872,8.319L845.53,253.943a19,19,0,1,1,30.7,22.247,19,19,0,0,1,2.058,3.533l-13.747,6.6,14.575-4.389a19.011,19.011,0,0,1-3.625,17.74,19,19,0,1,1-29.859-.941,19.011,19.011,0,0,1,.739-23.487Z" transform="translate(-841.186 -244.965)"/>
      <path id="Path_2291" data-name="Path 2291" class="cls-5" d="M879.959,467.536a18.932,18.932,0,0,1-4.428,11.616,19,19,0,1,1-29.859-.941C843.219,474.9,880.026,465.405,879.959,467.536Z" transform="translate(-841.218 -424.439)"/>
    </g>
    <path id="Path_2292" data-name="Path 2292" class="cls-6" d="M157.82,157.226l2.019-.006h2.847l3.6-58.482,35.652-59.493-1.55-1.663V33.37L161.832,97.36Z" transform="translate(-127.454 -26.946)"/>
    <path id="Path_2293" data-name="Path 2293" class="cls-5" d="M169.43,174.888h2.632l3.6-58.482,35.652-59.493-1.55-1.663L172.99,115.515Z" transform="translate(-136.829 -44.614)"/>
    <path id="Path_2294" data-name="Path 2294" class="cls-6" d="M126.91,662.109l92.378,7.069.079.006,89.4-5.5.067,0v-3.775L210.326,658.1l-82.186-.079h-.6l-.065.424Z" transform="translate(-102.494 -531.342)"/>
    <path id="Path_2295" data-name="Path 2295" class="cls-5" d="M126.91,662.109l92.378,7.069.079.006,89.4-5.5.067-.073v-3.627h-.079l-89.469,2.988L128.14,658.02h-.013l-.162.106-.491.318Z" transform="translate(-102.494 -531.342)"/>
    <path id="Path_2296" data-name="Path 2296" class="cls-5" d="M126.91,662.553l92.378,7.069v-6.2l-91.323-4.847-.491.318Z" transform="translate(-102.494 -531.786)"/>
    <path id="Path_2297" data-name="Path 2297" class="cls-6" d="M378.88,37.689,419.606,81.4l-1.259,76.89,3.459.418.058.008h3.459l.414-74.014L502,110.176l1.286,45.356,2.784.312.943.106-2.183-48.92-79.72-27.988L381.4,33.6H378.88Z" transform="translate(-305.956 -27.132)"/>
    <path id="Path_2298" data-name="Path 2298" class="cls-5" d="M620.65,291.7l.314,1.415,76.26,25.473,1.286,45.356,2.784.312-2.183-46.611Z" transform="translate(-501.182 -235.544)"/>
    <path id="Path_2299" data-name="Path 2299" class="cls-5" d="M378.88,37.689,419.606,81.4l-1.259,76.89,3.459.418.943-79.824L378.88,33.6Z" transform="translate(-305.956 -27.132)"/>
    <path id="Path_2300" data-name="Path 2300" class="cls-6" d="M621.42,431.044l27.97,5.508.01,0,48.989,9.651,2.243-.9-.008-.158-.146-3.128L621.449,426.05Z" transform="translate(-501.804 -344.03)"/>
    <path id="Path_2301" data-name="Path 2301" class="cls-5" d="M766.76,480.61l48.989,9.651,2.243-.9-.008-.158Z" transform="translate(-619.164 -388.086)"/>
    <path id="Path_2302" data-name="Path 2302" class="cls-6" d="M776.49,350.56l.757,41.648.391,21.367,3.444-.116,2.168-.073-.674-62.224-1.494-.5-.327-.106Z" transform="translate(-627.021 -283.073)"/>
    <path id="Path_2303" data-name="Path 2303" class="cls-5" d="M776.65,350.51v.01l.726,41.648.391,21.367,3.444-.116V350.51Z" transform="translate(-627.15 -283.032)"/>
    <path id="Path_2304" data-name="Path 2304" class="cls-3" d="M483.537,482.449a4.388,4.388,0,0,1,.578.375,3.823,3.823,0,0,1,.578.633,5.7,5.7,0,0,1,1.507,3.658,1.488,1.488,0,0,1-.429,1.059,1.924,1.924,0,0,1-1.276.3,2.717,2.717,0,0,1-1.415-.25c-.42-.25-.77-.737-1.267-.726a.65.65,0,0,1-.212,0c-.171-.056-.206-.281-.318-.424-.193-.256-.6-.192-.9-.081a1.306,1.306,0,0,1-.936.15.972.972,0,0,1-.406-.406,8.941,8.941,0,0,1-1-3.885c-.083-.816-.714-3.6,1.028-2.967a14.448,14.448,0,0,1,2.191,1.238Z" transform="translate(-388.017 -404.325)"/>
    <path id="Path_2305" data-name="Path 2305" class="cls-3" d="M496.924,490.6a.859.859,0,0,0,1.057-.042,1.592,1.592,0,0,0,.514-1c.193-.06.291.193.414.347.216.262.655.258.851.537.137.192.106.46.2.678.125.281.435.427.647.655a2.229,2.229,0,0,1,.424.845l.316.947a4.68,4.68,0,0,1,.289,1.226,1.588,1.588,0,0,1-.366,1.172,3.108,3.108,0,0,1-2.341.42,1.727,1.727,0,0,1-1.038-1.271,16.041,16.041,0,0,1-.214-1.7,6.654,6.654,0,0,0-.481-1.613c-.169-.4-.635-1-.628-1.423C496.708,490.384,496.808,490.511,496.924,490.6Z" transform="translate(-403.124 -412.203)"/>
    <path id="Path_2306" data-name="Path 2306" class="cls-7" d="M490.985,474.461a3.18,3.18,0,0,1-.156-.845,3.68,3.68,0,0,1,.529-1.636l-2.2.3a.974.974,0,0,0-.712.312.77.77,0,0,0,0,.71,3.632,3.632,0,0,1,.262.687,3.432,3.432,0,0,0,.071.618,1.308,1.308,0,0,0,.283.4,13.349,13.349,0,0,1,1.571,2.333c-.013-.023,1.326-1.061,1.273-1.4-.031-.193-.418-.424-.541-.608A3.1,3.1,0,0,1,490.985,474.461Z" transform="translate(-396.494 -398.013)"/>
    <path id="Path_2307" data-name="Path 2307" class="cls-6" d="M421.268,358.04v1.9L388.8,366.27l-1.685,1.02H381.3v-1.068l31.9-7.708Z" transform="translate(-307.911 -289.113)"/>
    <path id="Path_2308" data-name="Path 2308" class="cls-5" d="M421.268,367.89,388.8,374.224l-1.685,1.02H381.3l32.14-6.879Z" transform="translate(-307.911 -297.066)"/>
    <path id="Path_2309" data-name="Path 2309" class="cls-4" d="M441.9,721.585a2.516,2.516,0,0,0-3.061-.651.807.807,0,0,0-.281.219c-.193.27-.069.641-.052.974a2.917,2.917,0,0,1-1.184,2.041,2.8,2.8,0,0,0-.77,1.043.978.978,0,0,0,.341,1.155,1.418,1.418,0,0,0,.527.146,5.692,5.692,0,0,0,1.867.052,2.023,2.023,0,0,0,1.482-1.032,1.087,1.087,0,0,1,.248-.41c.339-.268.859.046,1.244-.144.318-.158.331-.406.335-.733A4.248,4.248,0,0,0,441.9,721.585Z" transform="translate(-354.61 -598.827)"/>
    <path id="Path_2310" data-name="Path 2310" class="cls-4" d="M471.1,715.594a6.34,6.34,0,0,1,.3,1.969,1.9,1.9,0,0,1-.179,1.122,1.534,1.534,0,0,1-1,.578,2.3,2.3,0,0,1-2.25-.628,2.375,2.375,0,0,1-.406-1.786c.062-.518.193-1.124-.179-1.492-.1-.1-.221-.167-.31-.273a.917.917,0,0,1-.058-.878,3.814,3.814,0,0,0,.3-.868,11.215,11.215,0,0,1,2.845.218c.325.16.275.427.373.751C470.672,714.756,470.933,715.162,471.1,715.594Z" transform="translate(-379.192 -592.87)"/>
    <path id="Path_2311" data-name="Path 2311" class="cls-3" d="M438.64,579.084a2.139,2.139,0,0,1,.784,1.577,33.628,33.628,0,0,1-.193,4.971c-.027,2.327.647,4.7.071,6.952-.345,1.348-.052,2.888-.375,4.249-.1.4-.273.785-.366,1.19a5.191,5.191,0,0,0,.281,2.649,2.736,2.736,0,0,1,.164.718,2.584,2.584,0,0,1-.281,1.086l-1.155,2.732c-.129.306-.637.356-.963.4a2.407,2.407,0,0,1-1.783-.254,2.28,2.28,0,0,1-.68-1.607,24.642,24.642,0,0,1-.193-3.432,2.829,2.829,0,0,0-.079-.891,7.817,7.817,0,0,1-.4-.963,3.866,3.866,0,0,1,.233-1.348,4.06,4.06,0,0,0-.019-1.249c-.075-.616-.162-1.232-.26-1.844a8.174,8.174,0,0,1,.193-2.56,7.06,7.06,0,0,0-.193-2.43,6.7,6.7,0,0,1-.241,1.925c-.1.306-.248.6-.337.911-.395,1.4.447,2.868.327,4.318a10.7,10.7,0,0,0-.246,2.016,6.8,6.8,0,0,0,.435,1.4,1.819,1.819,0,0,1,0,1.434c-.626,1.182-.158,2.789.4,4a5.4,5.4,0,0,1,.3.666,7.956,7.956,0,0,1,.071,1.7,1.074,1.074,0,0,1-.9-.271c-.085-.089-.154-.193-.237-.285a2.351,2.351,0,0,0-.8-.5,1.057,1.057,0,0,0-.578-.133,1.155,1.155,0,0,0-.549.341,5.37,5.37,0,0,1-.6.46.716.716,0,0,1-.308.137.271.271,0,0,1-.283-.144.344.344,0,0,1-.021-.1,15.241,15.241,0,0,1-.114-1.752c0-1.007-1.205-1.7-1.357-2.7-.121-.8.1-1.621.029-2.43a11.8,11.8,0,0,1-.144-1.24c0-.269.062-.533.083-.8a5.993,5.993,0,0,0-.013-.891l-.06-.93a8.035,8.035,0,0,0-.483-2.7,9.156,9.156,0,0,1-.751-3.1c-.039-.674-.013-1.348-.09-2.023a9.962,9.962,0,0,1-.179-1.829c.037-.474.193-.932.229-1.405a7.181,7.181,0,0,0-.543-2.668,3.95,3.95,0,0,1-.116-2.68.879.879,0,0,1,.246-.358,1.074,1.074,0,0,1,.454-.169,35.254,35.254,0,0,1,10.053-.641,3.339,3.339,0,0,1,1.55.483Z" transform="translate(-346.257 -484.017)"/>
    <circle id="Ellipse_3197" data-name="Ellipse 3197" class="cls-7" cx="3.084" cy="3.084" r="3.084" transform="translate(78.37 68.452)"/>
    <path id="Path_2312" data-name="Path 2312" class="cls-7" d="M426.19,466.683a1.1,1.1,0,0,1,0,.537,1.216,1.216,0,0,1-.2.339,8.705,8.705,0,0,1-.988,1.074,1.789,1.789,0,0,0,.922.911,5.352,5.352,0,0,0,1.273.364,1.334,1.334,0,0,0,1.247-.216l1.713-1.026a3.422,3.422,0,0,0,.712-.514,1.754,1.754,0,0,0,.5-1.205.331.331,0,0,0-.062-.227.4.4,0,0,0-.235-.1,2.088,2.088,0,0,1-1.348-1.176,6.231,6.231,0,0,1-.468-1.785l-1.827.963c-.271.144-.541.289-.822.414-.179.081-.541.148-.668.312C425.693,465.651,426.126,466.319,426.19,466.683Z" transform="translate(-345.333 -391.294)"/>
    <path id="Path_2313" data-name="Path 2313" class="cls-3" d="M422.372,478.338a2.031,2.031,0,0,0-.591.8,2.082,2.082,0,0,0,.108,1.172,34.977,34.977,0,0,1,1.155,4.965c.162,1.155.221,2.327.3,3.5.162,2.383.4,6.184.71,8.551a22.7,22.7,0,0,0,3.427-.408c2.141-.227,4.345.293,6.441-.192-.508-2.008-1.016-5.437-1.525-7.443a14.2,14.2,0,0,1-.466-2.416c-.044-.587-.017-1.176-.01-1.767.017-1.155-.046-2.31-.11-3.465a21.986,21.986,0,0,0-.466-4.014.747.747,0,0,0-.223-.441.9.9,0,0,0-.672-.06,2.922,2.922,0,0,1-2-.474c-.254-.173-.595-.385-.832-.193a.828.828,0,0,0-.193.41,2.05,2.05,0,0,1-1.205,1.188,6.031,6.031,0,0,1-1.706.35.838.838,0,0,1-.529-.06c-.273-.168-.293-.77-.637-.81C423.05,477.493,422.576,478.144,422.372,478.338Z" transform="translate(-342.694 -401.56)"/>
    <path id="Path_2314" data-name="Path 2314" class="cls-4" d="M412.6,483.575a11.711,11.711,0,0,1-1.54-2.5,5.572,5.572,0,0,0-1.33-1.463,3.966,3.966,0,0,1-.724-.614c-.183-.225-.322-.526-.6-.612a.724.724,0,0,0-.649.179,6.375,6.375,0,0,0-.481.512c-.816.845-2.25.963-2.9,1.94a1.59,1.59,0,0,0-.345.722,5.594,5.594,0,0,0,1.028,4.024,1.367,1.367,0,0,0,.712.578,2.23,2.23,0,0,0,.139,1.059,28.316,28.316,0,0,0,1.311,3.571,8.64,8.64,0,0,0-.258,1.384c-.135,1.176-.01,2.37-.137,3.548-.1.963-.385,1.9-.395,2.865,0,.154.013.337.146.416a.443.443,0,0,0,.229.048l2.368.071a19.216,19.216,0,0,0,4.116-.173,1.712,1.712,0,0,0,.518-.164,1.739,1.739,0,0,0,.683-1.348,11.743,11.743,0,0,0,.114-2.014,3.285,3.285,0,0,0,1.494,2.237,3.353,3.353,0,0,0,1.484.179,27.937,27.937,0,0,0,3.232-.333.425.425,0,0,0,.472-.495l.012-1.051a58.647,58.647,0,0,0-.712-6.3,13.693,13.693,0,0,0-.223-2c-.067-.275-.166-.545-.225-.822a5.873,5.873,0,0,1-.1-.822l-.15-2.118c-.071-.98-.173-1.925-.248-2.9a14.055,14.055,0,0,0-.412-2.822c-.167-.578-.516-1.232-1.118-1.3a2.305,2.305,0,0,0-.939.2,3.8,3.8,0,0,1-2.31-.01,3.256,3.256,0,0,0-.72-.193.707.707,0,0,0-.658.273.987.987,0,0,0-.1.485A25.677,25.677,0,0,1,412.6,483.575Z" transform="translate(-328.363 -402.096)"/>
    <path id="Path_2315" data-name="Path 2315" class="cls-3" d="M410.219,499.429a11.689,11.689,0,0,0-2.942-2.483,2.35,2.35,0,0,0-1.461-.323,1.094,1.094,0,0,0-.939,1.028,6.654,6.654,0,0,0,.266.9,9.454,9.454,0,0,0,.077,1.051,1.779,1.779,0,0,0,.385.591l1.363,1.615a8.774,8.774,0,0,0,1.9,1.823,2.853,2.853,0,0,0,2.522.352,3.1,3.1,0,0,0,1.382-1.269c.339-.539.578-1.128.9-1.684a8.364,8.364,0,0,1,1.925-2.335,2.139,2.139,0,0,1-1.155-.578,1.909,1.909,0,0,1-.183-.331l-.312-.674a.77.77,0,0,0-.578.218,4.848,4.848,0,0,1-.429.437c-.271.2-.639.26-.886.493a2.35,2.35,0,0,0-.258.323A2.16,2.16,0,0,1,410.219,499.429Z" transform="translate(-329.083 -417.892)"/>
    <path id="Path_2316" data-name="Path 2316" class="cls-7" d="M452.305,467.435a11.533,11.533,0,0,0,.828-4.056,1.852,1.852,0,0,1,.368-1.007,1.918,1.918,0,0,1,1.646-.385c.171.019.385.1.375.271a.346.346,0,0,1-.087.164,4.58,4.58,0,0,0-.951,2.526c.3.21.77-.221,1.061,0,.193.162.1.481-.012.712q-.4.8-.83,1.594a5.119,5.119,0,0,1-.88,1.269c-.245.235-.531.42-.78.651-.578.541-.926,1.305-1.523,1.833a.312.312,0,0,1-.193.1.323.323,0,0,1-.2-.09,2.918,2.918,0,0,1-.728-.88c-.227-.42-.193-.543.166-.839A6.362,6.362,0,0,0,452.305,467.435Z" transform="translate(-365.727 -389.923)"/>
    <path id="Path_2317" data-name="Path 2317" class="cls-4" d="M411.687,496.2c.115.071.258.152.385.092a.4.4,0,0,0,.129-.125,4.531,4.531,0,0,0,.547-.951.366.366,0,0,0,.04-.154c0-.123-.11-.214-.212-.285a7.847,7.847,0,0,0-1.75-.832,3.612,3.612,0,0,0-1.579-.312,1.506,1.506,0,0,0-1.053.535c-.385.495.26.645.664.824A25.671,25.671,0,0,1,411.687,496.2Z" transform="translate(-331.667 -415.492)"/>
    <path id="Path_2318" data-name="Path 2318" class="cls-5" d="M423.667,516.674a.283.283,0,0,0,.081.242c.056-.273-.017-.562.04-.837.085-.414.487-.726.522-1.142C423.573,514.793,423.673,516.227,423.667,516.674Z" transform="translate(-344.254 -432.692)"/>
    <path id="Path_2319" data-name="Path 2319" class="cls-8" d="M555.084,358.04v1.9l-7.828.476-.237-1.9Z" transform="translate(-441.727 -289.113)"/>
    <path id="Path_2320" data-name="Path 2320" class="cls-3" d="M415.914,442.625c.489-.4.206-1.234.537-1.769a1.719,1.719,0,0,1,.837-.578,3.809,3.809,0,0,1,1.222-.339,1.419,1.419,0,0,1,1.155.425c.125.143.21.316.327.464a1.251,1.251,0,0,0,1.213.42c.256-.058.522-.252.5-.514a.726.726,0,0,0-.231-.412l-.551-.61a4.37,4.37,0,0,0-2.239-1.6,3.841,3.841,0,0,0-1.91.256c-.248.083-.527.206-.6.458-.046.173.023.362-.017.537-.079.348-.526.466-.733.758s-.144.639-.2.963a8.416,8.416,0,0,0-.254.974c-.013.2.089.578.316.651S415.774,442.384,415.914,442.625Z" transform="translate(-337.237 -370.631)"/>
    <path id="Path_2321" data-name="Path 2321" class="cls-9" d="M420.837,433.828a5.775,5.775,0,0,0-1.024-2.341,4.1,4.1,0,0,0-1.823-1.448,2.61,2.61,0,0,0-2.27.179,3.3,3.3,0,0,0-1.134,1.43,3.825,3.825,0,0,0-.1,3.419c.231-.281.628-.154.978-.256a10.192,10.192,0,0,0,1.228-.6C417.95,433.654,419.49,434.1,420.837,433.828Z" transform="translate(-336.55 -364.001)"/>
    <path id="Path_2322" data-name="Path 2322" class="cls-5" d="M417.294,445.791a1.176,1.176,0,0,1,.173-1,.125.125,0,0,1,.1-.046.133.133,0,0,1,.079.069,4.307,4.307,0,0,1,.362.708.735.735,0,0,0-.77.3" transform="translate(-339.067 -376.024)"/>
    <path id="Path_2323" data-name="Path 2323" class="cls-5" d="M440.511,441.066l-.069-.687a.314.314,0,0,1,.013-.169.218.218,0,0,1,.281-.077.577.577,0,0,1,.225.225,4.043,4.043,0,0,1,.4.784,2.329,2.329,0,0,0-.938.012" transform="translate(-357.784 -372.277)"/>
    <path id="Path_2324" data-name="Path 2324" class="cls-5" d="M403.923,502.21v1.571l-1.326.089H395.62V502.21Z" transform="translate(-319.474 -405.528)"/>
    <path id="Path_2325" data-name="Path 2325" class="cls-6" d="M311.4,387.8v1.659h-8.3L281.04,361.825V360.52h4.624Z" transform="translate(-226.952 -291.115)"/>
    <path id="Path_2326" data-name="Path 2326" class="cls-5" d="M311.4,387.8v1.659h-8.3L281.04,361.825V360.52h4.624Z" transform="translate(-226.952 -291.115)"/>
    <path id="Path_2327" data-name="Path 2327" class="cls-5" d="M311.4,387.8v1.659h-8.3L281.04,361.825V360.52L303.218,387.8Z" transform="translate(-226.952 -291.115)"/>
    <path id="Path_2328" data-name="Path 2328" class="cls-4" d="M297.5,728.366a.577.577,0,0,1-.5.68,3.431,3.431,0,0,0-1.482.77,1.059,1.059,0,0,0,0,1.5,1.461,1.461,0,0,0,.77.21,5.218,5.218,0,0,0,2.572-.321,3.816,3.816,0,0,1,1.721-.668c.322.019.664.169.951.023s.368-.555.37-.9a6.627,6.627,0,0,0-.318-2.1,8.408,8.408,0,0,0-1.4-.193l-1.484-.193c-.281-.037-.887-.248-1.109-.014S297.5,728.087,297.5,728.366Z" transform="translate(-240.523 -603.989)"/>
    <path id="Path_2329" data-name="Path 2329" class="cls-4" d="M352.944,696.879a4.652,4.652,0,0,0,.3,1.009,2.349,2.349,0,0,0,.974,1.334,1.739,1.739,0,0,0,1.486-.071,1.224,1.224,0,0,0,.495-.375,1.49,1.49,0,0,0,.193-.864,4.722,4.722,0,0,0-.385-2.177c-.293-.578-.8-1.074-.81-1.713l-1.754.339a.5.5,0,0,0-.258.1.445.445,0,0,0-.112.21A5.731,5.731,0,0,0,352.944,696.879Z" transform="translate(-287.107 -577.307)"/>
    <path id="Path_2330" data-name="Path 2330" class="cls-4" d="M244.232,600.534a2.865,2.865,0,0,0,.281,1.819,1.408,1.408,0,0,0,1.594.676.233.233,0,0,0,.144-.11.271.271,0,0,0-.025-.192,2.841,2.841,0,0,1,.06-2.141c.039-.089.121-.193.212-.158a.192.192,0,0,1,.087.089,1.007,1.007,0,0,1,.135.531,1.976,1.976,0,0,0-.015.51c.037.166.214.322.368.25a.385.385,0,0,0,.175-.248,8.207,8.207,0,0,0,.039-3.9.2.2,0,0,0-.229-.214c-.909-.09-1.405-.308-1.925.537A5.277,5.277,0,0,0,244.232,600.534Z" transform="translate(-199.339 -499.251)"/>
    <path id="Path_2331" data-name="Path 2331" class="cls-3" d="M297.208,595.141a11.806,11.806,0,0,0-.4,5.548l.2,1.667c.069.562.137,1.122.235,1.679a4.462,4.462,0,0,1,.1.872,4.67,4.67,0,0,1-.137.857,10.013,10.013,0,0,0-.2,1.79c-.021.963.1,1.925.173,2.888a32.156,32.156,0,0,1-.067,5.76,2.16,2.16,0,0,0,.316,1.484,1.908,1.908,0,0,1,.279.458c.144.441-.192.882-.279,1.334a1.348,1.348,0,0,0,1.12,1.54c1.54.183,3.123.1,4.511.8.146-.427-.173-.913-.027-1.348.092-.27.346-.445.52-.672a1.956,1.956,0,0,0,.331-1.174,4.291,4.291,0,0,0-.285-1.592,3.443,3.443,0,0,1-.385-1.3,1.637,1.637,0,0,0-.012-.664,1.036,1.036,0,0,0-.248-.31,3.914,3.914,0,0,1-1.007-2.281,10.51,10.51,0,0,1,.081-2.53,4.3,4.3,0,0,1,.728-2.26,14.5,14.5,0,0,1,.406-5.631c.05-.169.129-.366.3-.406a.431.431,0,0,1,.37.146,2.524,2.524,0,0,1,.578,1.086,2.367,2.367,0,0,1,.181,1.315c-.046.193-.139.362-.193.547a1.621,1.621,0,0,0,.058,1.13,1.086,1.086,0,0,1,.139.425,1.177,1.177,0,0,1-.116.37,1.7,1.7,0,0,0,.16,1.376,4.983,4.983,0,0,0,.9,1.1,4.042,4.042,0,0,0,.125,2.225.281.281,0,0,1,.025.214c-.035.073-.123.1-.193.152-.193.158-.073.456.056.662a15.18,15.18,0,0,0,1.169,1.621c.385.46.35,1.348.924,1.513a1.731,1.731,0,0,0,.732,0,1.918,1.918,0,0,0,1.475-.751,2.021,2.021,0,0,1,.337-.61c.177-.154.406-.181.5-.366s-.012-.427.021-.641.219-.385.279-.61c.142-.52-.464-.947-.547-1.479-.119-.77.851-1.348.81-2.118-.085-1.673-.139-3.354-.225-5.027a36.23,36.23,0,0,1-.046-4.5,6.332,6.332,0,0,0-.15-2.78,3.724,3.724,0,0,0-3.167-2.043,15.6,15.6,0,0,0-3.929.385A24.834,24.834,0,0,1,297.208,595.141Z" transform="translate(-241.692 -497.017)"/>
    <circle id="Ellipse_3198" data-name="Ellipse 3198" class="cls-10" cx="3.084" cy="3.084" r="3.084" transform="translate(56.34 73.555)"/>
    <path id="Path_2332" data-name="Path 2332" class="cls-10" d="M307.949,496.731a1.315,1.315,0,0,1-1.257.8,1.55,1.55,0,0,0,.462,1.292,5.483,5.483,0,0,0,5.248,1.8,2.589,2.589,0,0,0,1.034-.431,2.293,2.293,0,0,0,.789-1.367,6.8,6.8,0,0,0,.075-1.607.415.415,0,0,0-.085-.3.423.423,0,0,0-.27-.089,4.673,4.673,0,0,1-1.9-.4,1.356,1.356,0,0,1-.7-1.634,6.9,6.9,0,0,1-1.317.156c-.464.065-.928.139-1.39.223a2.528,2.528,0,0,0-.653.123c-.279.144-.175.073-.11.335A1.592,1.592,0,0,1,307.949,496.731Z" transform="translate(-249.779 -416.431)"/>
    <path id="Path_2333" data-name="Path 2333" class="cls-3" d="M263.239,505.195a5.109,5.109,0,0,1-1.234-.137,1.733,1.733,0,0,1-1.013-.676c-.142-.216-.235-.487-.462-.608-.372-.193-.8.133-1.092.431a3.964,3.964,0,0,1-.928.747c-.412.218-.893.295-1.282.551a3.222,3.222,0,0,0-.77.832l-2.728,3.716c-1.1,1.494-2.048,3.1-3.024,4.674a33.048,33.048,0,0,0-1.925,4.409.493.493,0,0,0-.06.3c.023.1.144.181.229.123-.287.285-.035.77-.1,1.17a1.437,1.437,0,0,1-.458.718,3.618,3.618,0,0,1,1.271.06,3.893,3.893,0,0,1,1.2.578c.233-.037.212-.451.385-.6.1-.091.258-.079.395-.106.514-.1.718-.718,1.113-1.067.329-.291.8-.385,1.144-.658.566-.445.687-1.236.984-1.892.252-.556.649-1.042.87-1.611a6.939,6.939,0,0,1,.42-1.111,3.18,3.18,0,0,1,1.54-1.107,2.551,2.551,0,0,1,1.172-.314,10.888,10.888,0,0,0,.06,2.651c.067.308.162.608.243.914a17.22,17.22,0,0,1,.472,4.235,12.888,12.888,0,0,1,2.7-.323c.714-.021,1.427.071,2.141.058.847-.015,1.685-.179,2.532-.237a4.729,4.729,0,0,1,2.482.385,23.578,23.578,0,0,1,.1-3.658l.2-1.914a11.753,11.753,0,0,1,.256-1.652c.112-.439.273-.862.4-1.3a14.876,14.876,0,0,0,.271-4.788,6.036,6.036,0,0,0-.734-2.368,6.408,6.408,0,0,0-.462-.785,4.549,4.549,0,0,0-3.977-1.867.8.8,0,0,0-.285.062.949.949,0,0,0-.364.433,4.717,4.717,0,0,1-1.677,1.74Z" transform="translate(-202.723 -423.02)"/>
    <path id="Path_2334" data-name="Path 2334" class="cls-3" d="M301.8,471.273c.087-.193.32-.264.462-.418.273-.293.15-.76.192-1.155a1.659,1.659,0,0,1,1.1-1.267,3.546,3.546,0,0,1,1.733-.11,1.677,1.677,0,0,1,.782.26c.1.073.193.168.287.235a.77.77,0,0,0,1.047-.244,3.791,3.791,0,0,0-3.552-2.041,3.508,3.508,0,0,0-1.417.166,2.362,2.362,0,0,0-1.244,1.436,6.983,6.983,0,0,0-.3,1.925,7.259,7.259,0,0,0,0,1.309,3.619,3.619,0,0,0,.643,1.65.5.5,0,0,0,.193.179C302.6,473.583,301.729,471.432,301.8,471.273Z" transform="translate(-245.088 -393.611)"/>
    <path id="Path_2335" data-name="Path 2335" class="cls-9" d="M304.61,459.8a3.779,3.779,0,0,0-1.44-2.258,5.31,5.31,0,0,0-1.935-1.165,2.585,2.585,0,0,0-2.183.266,3.354,3.354,0,0,0-1.063,1.461,4.6,4.6,0,0,0-.464,2.118,2.283,2.283,0,0,0,1.034,1.833,1.944,1.944,0,0,1,1-.645,49.02,49.02,0,0,1,5.05-1.609Z" transform="translate(-242.398 -385.315)"/>
    <path id="Path_2336" data-name="Path 2336" class="cls-5" d="M303.122,472.72c.062,0,.1.064.133.116a4.879,4.879,0,0,1,.4.77c-.225.048-.612.1-.724-.1C302.873,473.409,302.945,472.71,303.122,472.72Z" transform="translate(-246.749 -398.61)"/>
    <path id="Path_2337" data-name="Path 2337" class="cls-5" d="M326.369,466.473c-.046.044-.1-.046-.1-.112v-.747a.109.109,0,0,1,.013-.06.091.091,0,0,1,.064-.031c.156-.017.285.116.385.243a4.062,4.062,0,0,1,.395.656l-.814-.025" transform="translate(-265.609 -392.798)"/>
    <path id="Path_2338" data-name="Path 2338" class="cls-3" d="M353.712,513.953a5.043,5.043,0,0,1,.566-.464,8.541,8.541,0,0,1,1.777-.724,2.345,2.345,0,0,0,1.44-1.192,2.83,2.83,0,0,0,.112-1.155,1.155,1.155,0,0,0-.085-.475.945.945,0,0,0-.3-.331,4.4,4.4,0,0,0-2.911-.587,18.246,18.246,0,0,0-6.432,1.606.558.558,0,0,0-.27.193.551.551,0,0,0-.052.268,4.428,4.428,0,0,0,.218,1.677c.266.685.812,1.238,1.042,1.937.1.314.139.647.229.963a1.348,1.348,0,0,0,.541.8c.76.454,1.478-.156,2.006-.63Z" transform="translate(-282.788 -427.91)"/>
    <path id="Path_2339" data-name="Path 2339" class="cls-4" d="M298.914,510.013l-.976-2.129a7.446,7.446,0,0,1-.37-.911c-.112-.372-.166-.757-.27-1.13-.343-1.244-1.207-2.279-1.629-3.5a.664.664,0,0,0-.158-.295.514.514,0,0,0-.429-.077,6.706,6.706,0,0,0-1.588.8c-.25.116-.52.193-.77.325a.962.962,0,0,0-.516.614,1.5,1.5,0,0,0,.21.864,9.762,9.762,0,0,1,.666,3.8,4.037,4.037,0,0,1-.541,2.5c-.988,1.348-.356,3.327.013,4.957.044.193.1.4.127.6a5.558,5.558,0,0,1,.044.77,6.027,6.027,0,0,1-.41,2.539,2.841,2.841,0,0,0,1.155.327q1.677.214,3.367.3a3.671,3.671,0,0,0,1.057-.054,1.925,1.925,0,0,0,1.423-1.887,2.38,2.38,0,0,0,.562,1.482,2.239,2.239,0,0,0,1.477.454,27.448,27.448,0,0,0,4.447-.125.77.77,0,0,0,.273-.063c.285-.143.3-.535.277-.851-.042-.591-.087-1.182-.158-1.769a7.239,7.239,0,0,1-.092-1.132,6.511,6.511,0,0,1,.193-1.155,13.1,13.1,0,0,0,.375-3.658,6.176,6.176,0,0,1-.037-.9,11.964,11.964,0,0,0,.341-2,32.779,32.779,0,0,0-.9-5.943,1.54,1.54,0,0,0-.526-.907c-.385-.258-.926-.123-1.367-.287a3.414,3.414,0,0,1-.587-.348,2.7,2.7,0,0,0-1.326-.408,1.126,1.126,0,0,0-.963.35,1.4,1.4,0,0,0-.193.526c-.279,1.174-.606,2.335-.934,3.5l-.314,1.113-.841,2.988C298.943,509.614,299,509.712,298.914,510.013Z" transform="translate(-237.949 -421.303)"/>
    <path id="Path_2340" data-name="Path 2340" class="cls-6" d="M326.915,400.25l18.622,19.569v1.659h-8.3L323.24,403.215" transform="translate(-261.028 -323.197)"/>
    <path id="Path_2341" data-name="Path 2341" class="cls-5" d="M326.915,400.25l18.622,19.569v1.659h-8.3L323.24,403.215" transform="translate(-261.028 -323.197)"/>
    <path id="Path_2342" data-name="Path 2342" class="cls-5" d="M323.536,414.31l.06.021,13.757,16.841h8.184v1.659h-8.3L323.24,414.568Z" transform="translate(-261.028 -334.55)"/>
    <path id="Path_2343" data-name="Path 2343" class="cls-4" d="M340.026,500.835c-.674.295-1.423.672-1.625,1.38a.691.691,0,0,0,.682.926,2.31,2.31,0,0,0,.926-.169l3.975-1.313c.108-.035.231-.087.258-.193a.331.331,0,0,0-.039-.193c-.123-.3-.244-.914-.5-1.124-.212-.169-.631-.11-.887-.106A7.2,7.2,0,0,0,340.026,500.835Z" transform="translate(-275.374 -420.663)"/>
    <path id="Path_2344" data-name="Path 2344" class="cls-3" d="M361.849,500.131a6.394,6.394,0,0,1,1.973.306,3.515,3.515,0,0,1,1.634,1.117,1.224,1.224,0,0,1,.258.5c.039.193.666.308.527.439.422-.067.322.131.749.127a1.415,1.415,0,0,0,1.145-.454,1.488,1.488,0,0,0,.225-.941,1.6,1.6,0,0,0-.127-.666,1.967,1.967,0,0,0-1.043-.809l-3.438-1.573a2.283,2.283,0,0,0-.635-.225,2.373,2.373,0,0,0-.56.013l-1.557.179a2.335,2.335,0,0,1,1.065,2.054" transform="translate(-293.654 -418.979)"/>
  </g>
</svg>
