<svg xmlns="http://www.w3.org/2000/svg" viewBox="0 0 122.27 122.27">
  <defs>
    <style>
      .cls-1 {
        fill: #ee5c5c;
      }

      .cls-2 {
        fill: #fff;
      }
    </style>
  </defs>
  <g id="Group_176" data-name="Group 176" transform="translate(-438.863 -405.193)">
    <rect id="Rectangle_1772" data-name="Rectangle 1772" class="cls-1" width="122.27" height="122.27" rx="38" transform="translate(438.863 405.193)"/>
    <path id="comments" class="cls-2" d="M55.714,53.429C55.714,41.589,43.246,32,27.857,32S0,41.589,0,53.429A18.169,18.169,0,0,0,5.089,65.75a30.145,30.145,0,0,1-4.795,7.3,1.065,1.065,0,0,0-.2,1.165,1.049,1.049,0,0,0,.978.643,23.581,23.581,0,0,0,11.879-3.348,34.078,34.078,0,0,0,14.906,3.348C43.246,74.857,55.714,65.268,55.714,53.429ZM72.054,82.893a18.144,18.144,0,0,0,5.089-12.321c0-8.96-7.165-16.634-17.317-19.835A19.9,19.9,0,0,1,60,53.429c0,14.183-14.424,25.714-32.143,25.714a40.155,40.155,0,0,1-4.246-.254C27.83,86.589,37.741,92,49.286,92a33.892,33.892,0,0,0,14.906-3.348A23.582,23.582,0,0,0,76.071,92a1.056,1.056,0,0,0,.978-.643,1.073,1.073,0,0,0-.2-1.165A29.824,29.824,0,0,1,72.054,82.893Z" transform="translate(461.318 404.632)"/>
  </g>
</svg>
