<svg xmlns="http://www.w3.org/2000/svg" viewBox="0 0 122.27 122.27">
  <defs>
    <style>
      .cls-1 {
        fill: #ff8b4b;
      }

      .cls-2 {
        fill: #fff;
      }
    </style>
  </defs>
  <g id="Group_175" data-name="Group 175" transform="translate(-264 -405.193)">
    <rect id="Rectangle_1729" data-name="Rectangle 1729" class="cls-1" width="122.27" height="122.27" rx="38" transform="translate(264 405.193)"/>
    <path id="envelope" class="cls-2" d="M71.944,82.161a.862.862,0,0,1,1.389.673v29.29A6.877,6.877,0,0,1,66.458,119H6.875A6.877,6.877,0,0,1,0,112.125V82.849a.857.857,0,0,1,1.389-.673C4.6,84.668,8.852,87.833,23.461,98.447c3.022,2.206,8.121,6.846,13.206,6.818,5.113.043,10.313-4.7,13.22-6.818C64.5,87.833,68.736,84.654,71.944,82.161ZM36.667,100.667c3.323.057,8.107-4.182,10.513-5.93,19.007-13.793,20.453-15,24.836-18.434A3.427,3.427,0,0,0,73.333,73.6V70.875A6.877,6.877,0,0,0,66.458,64H6.875A6.877,6.877,0,0,0,0,70.875V73.6A3.448,3.448,0,0,0,1.318,76.3C5.7,79.727,7.147,80.944,26.154,94.737c2.406,1.747,7.19,5.987,10.513,5.93Z" transform="translate(288.225 374.579)"/>
  </g>
</svg>
