<svg xmlns="http://www.w3.org/2000/svg" viewBox="0 0 173.6 25.301">
  <defs>
    <style>
      .cls-1 {
        fill: #fff;
      }
    </style>
  </defs>
  <g id="epicreadyroboto5" transform="translate(-0.048 -0.02)">
    <circle id="Ellipse_1" data-name="Ellipse 1" class="cls-1" cx="4.863" cy="4.863" r="4.863" transform="translate(11.99 10.131)"/>
    <path id="Path_1" data-name="Path 1" class="cls-1" d="M22.724,45.809a3.065,3.065,0,0,1-2.113,1.518h0A4.912,4.912,0,0,0,17.738,49.6a4.855,4.855,0,1,0,8.925,1.067h0a3,3,0,0,1,.185-2.606,3.065,3.065,0,0,1,2.113-1.518h0a4.912,4.912,0,0,0,2.873-2.277A4.855,4.855,0,1,0,22.908,43.2h0A3.149,3.149,0,0,1,22.724,45.809Z" transform="translate(-17.08 -37.028)"/>
    <path id="Path_2" data-name="Path 2" class="cls-1" d="M173.458,52.747H166.38V57.21h8.361v3.461H161.88V42h12.887v3.476H166.38v3.937h7.079Z" transform="translate(-132.132 -40.954)"/>
    <path id="Path_3" data-name="Path 3" class="cls-1" d="M247.732,54.331v6.334h-4.5V41.994h7.45a8.689,8.689,0,0,1,3.788.788,5.962,5.962,0,0,1,2.552,2.245,6.155,6.155,0,0,1,.9,3.3,5.4,5.4,0,0,1-1.955,4.366,8.135,8.135,0,0,1-5.365,1.641Zm0-3.476h2.948a2.779,2.779,0,0,0,1.994-.655,2.432,2.432,0,0,0,.685-1.847,3.012,3.012,0,0,0-.7-2.091,2.5,2.5,0,0,0-1.925-.794h-3Z" transform="translate(-196.791 -40.948)"/>
    <path id="Path_4" data-name="Path 4" class="cls-1" d="M339.827,60.671H335.34V42h4.487Z" transform="translate(-270.002 -40.954)"/>
    <path id="Path_5" data-name="Path 5" class="cls-1" d="M392.831,53.326a6.824,6.824,0,0,1-1.051,3.449,6.361,6.361,0,0,1-2.7,2.314,9.172,9.172,0,0,1-3.968.821,7.33,7.33,0,0,1-5.8-2.4,9.9,9.9,0,0,1-2.115-6.771v-.923a11.319,11.319,0,0,1,.954-4.8,7.23,7.23,0,0,1,2.751-3.18,7.663,7.663,0,0,1,4.155-1.122,8.044,8.044,0,0,1,5.462,1.789,7.067,7.067,0,0,1,2.347,4.924h-4.487a3.357,3.357,0,0,0-.86-2.45,3.52,3.52,0,0,0-2.462-.743A2.689,2.689,0,0,0,382.6,45.49a8.079,8.079,0,0,0-.821,4.013v1.321a8.949,8.949,0,0,0,.749,4.27,2.745,2.745,0,0,0,2.585,1.282,3.457,3.457,0,0,0,2.372-.73,3.1,3.1,0,0,0,.872-2.321Z" transform="translate(-303.273 -39.93)"/>
    <path id="Path_6" data-name="Path 6" class="cls-1" d="M517.151,54.067h-2.429v6.6h-4.5V42h7.341a8.2,8.2,0,0,1,5.193,1.473,4.993,4.993,0,0,1,1.871,4.163,6.057,6.057,0,0,1-.788,3.227,5.627,5.627,0,0,1-2.462,2.076l3.9,7.538v.193h-4.82Zm-2.429-3.461h2.84a2.555,2.555,0,0,0,1.929-.675,2.607,2.607,0,0,0,.648-1.884,2.637,2.637,0,0,0-.654-1.9,2.532,2.532,0,0,0-1.923-.687h-2.84Z" transform="translate(-409 -40.954)"/>
    <path id="Path_7" data-name="Path 7" class="cls-1" d="M597.8,78.508a7.129,7.129,0,0,1-5.166-1.9,6.585,6.585,0,0,1-1.976-4.957v-.359a8.5,8.5,0,0,1,.79-3.757,5.778,5.778,0,0,1,2.3-2.52,6.941,6.941,0,0,1,3.591-.89,6.008,6.008,0,0,1,4.617,1.814,7.151,7.151,0,0,1,1.7,5.06v1.678h-8.6a3.121,3.121,0,0,0,1.014,1.834,3.008,3.008,0,0,0,2.025.667,3.887,3.887,0,0,0,3.207-1.436l1.974,2.335a5.509,5.509,0,0,1-2.29,1.769A7.729,7.729,0,0,1,597.8,78.508Zm-.486-11.053q-1.9,0-2.257,2.513h4.36v-.334a2.14,2.14,0,0,0-.525-1.609A2.1,2.1,0,0,0,597.309,67.455Z" transform="translate(-472.929 -58.534)"/>
    <path id="Path_8" data-name="Path 8" class="cls-1" d="M667.767,78.261a4.852,4.852,0,0,1-.41-1.243,4.022,4.022,0,0,1-3.334,1.5,4.924,4.924,0,0,1-3.342-1.186,3.775,3.775,0,0,1-1.373-2.981,3.884,3.884,0,0,1,1.666-3.412,8.476,8.476,0,0,1,4.848-1.153h1.334V69.05q0-1.92-1.654-1.92a1.352,1.352,0,0,0-1.539,1.52h-4.309a3.874,3.874,0,0,1,1.713-3.266,7.186,7.186,0,0,1,4.366-1.254,6.315,6.315,0,0,1,4.194,1.295,4.489,4.489,0,0,1,1.576,3.552v6.143a6.292,6.292,0,0,0,.591,2.924v.217Zm-2.706-2.821a2.4,2.4,0,0,0,1.34-.347,2.154,2.154,0,0,0,.763-.782V72.093h-1.258q-2.257,0-2.257,2.025a1.231,1.231,0,0,0,.4.956A1.436,1.436,0,0,0,665.061,75.439Z" transform="translate(-527.498 -58.543)"/>
    <path id="Path_9" data-name="Path 9" class="cls-1" d="M727.72,49.657a8.473,8.473,0,0,1,1.424-5.193,4.679,4.679,0,0,1,3.968-1.9,3.987,3.987,0,0,1,3.129,1.461V37h4.333V56.7H736.7l-.217-1.488a4.089,4.089,0,0,1-3.385,1.744,4.675,4.675,0,0,1-3.923-1.9A8.755,8.755,0,0,1,727.72,49.657Zm4.323.269q0,3.693,2.154,3.693a2.127,2.127,0,0,0,2.052-1.2V47.132a2.072,2.072,0,0,0-2.027-1.231q-2,0-2.167,3.232Z" transform="translate(-581.874 -36.98)"/>
    <path id="Path_10" data-name="Path 10" class="cls-1" d="M803.03,73.2l2.308-7.821h4.629l-5.655,16.195-.244.591a4.291,4.291,0,0,1-4.257,2.692,6.757,6.757,0,0,1-1.781-.254V81.526h.564a2.965,2.965,0,0,0,1.391-.263,1.6,1.6,0,0,0,.712-.944l.345-.923L796.22,65.382h4.617Z" transform="translate(-636.319 -59.537)"/>
  </g>
</svg>
