<svg id="Layer_1" data-name="Layer 1" xmlns="http://www.w3.org/2000/svg" width="875.2" height="123.34" viewBox="0 0 875.2 123.34"><title>epiclogo2</title><circle cx="81.95" cy="73" r="23.7" fill="#ff4612"/><path d="M44.4,79.7a14.94,14.94,0,0,1-10.3,7.4h0a23.94,23.94,0,0,0-14,11.1,23.66,23.66,0,1,0,43.5,5.2h0a14.62,14.62,0,0,1,.9-12.7,14.94,14.94,0,0,1,10.3-7.4h0a23.94,23.94,0,0,0,14-11.1A23.66,23.66,0,1,0,45.3,67h0A15.35,15.35,0,0,1,44.4,79.7Z" transform="translate(-17.08 -36.98)" fill="#ff4612"/><path d="M218.31,94.38h-34.5v21.75h40.75V133H161.88V42h62.81V58.94H183.81V78.13h34.5Z" transform="translate(-17.08 -36.98)" fill="#413c38"/><path d="M265.17,102.13V133H243.23V42h36.31A42.35,42.35,0,0,1,298,45.84a29.06,29.06,0,0,1,12.44,10.94,30,30,0,0,1,4.4,16.1q0,13.31-9.53,21.28t-26.15,8Zm0-16.94h14.37q6.38,0,9.72-3.19t3.34-9q0-6.37-3.43-10.19a12.19,12.19,0,0,0-9.38-3.87H265.17Z" transform="translate(-17.08 -36.98)" fill="#413c38"/><path d="M357.21,133H335.34V42h21.87Z" transform="translate(-17.08 -36.98)" fill="#413c38"/><path d="M453.38,102.19A33.26,33.26,0,0,1,448.26,119a31,31,0,0,1-13.16,11.28,44.7,44.7,0,0,1-19.34,4q-17.94,0-28.25-11.69t-10.31-33v-4.5q0-13.36,4.65-23.4a35.24,35.24,0,0,1,13.41-15.5,37.35,37.35,0,0,1,20.25-5.47q16.56,0,26.62,8.72t11.44,24H431.7q-.26-8.31-4.19-11.94t-12-3.62q-8.19,0-12,6.12t-4,19.56V90q0,14.56,3.65,20.81t12.6,6.25q7.56,0,11.56-3.56c2.67-2.37,4.08-6.15,4.25-11.31Z" transform="translate(-17.08 -36.98)" fill="#413c38"/><path d="M544,100.81H532.16V133H510.22V42H546q16.19,0,25.31,7.18t9.12,20.29q0,9.5-3.84,15.73t-12,10.12l19,36.74V133H560.1ZM532.16,83.94H546q6.24,0,9.4-3.29t3.16-9.18q0-5.89-3.19-9.24T546,58.88H532.16Z" transform="translate(-17.08 -36.98)" fill="#413c38"/><path d="M625.47,134.25q-15.56,0-25.18-9.28t-9.63-24.16V99.06a41.43,41.43,0,0,1,3.85-18.31,28.16,28.16,0,0,1,11.21-12.28,33.83,33.83,0,0,1,17.5-4.34q14.25,0,22.5,8.84T654,97.63v8.18H612.1a15.21,15.21,0,0,0,4.94,8.94,14.66,14.66,0,0,0,9.87,3.25q10,0,15.63-7l9.62,11.38A26.85,26.85,0,0,1,641,131,37.67,37.67,0,0,1,625.47,134.25ZM623.1,80.38q-9.26,0-11,12.25h21.25V91c.08-3.37-.77-6-2.56-7.84S626.43,80.38,623.1,80.38Z" transform="translate(-17.08 -36.98)" fill="#413c38"/><path d="M700.54,133a23.65,23.65,0,0,1-2-6.06q-5.82,7.31-16.25,7.31A24,24,0,0,1,666,128.47a18.4,18.4,0,0,1-6.69-14.53q0-11,8.12-16.63t23.63-5.62h6.5V88.11q0-9.36-8.06-9.36-7.5,0-7.5,7.41H661q0-9.8,8.35-15.92t21.28-6.11q12.93,0,20.44,6.31t7.68,17.31v29.94q.13,9.32,2.88,14.25V133Zm-13.19-13.75a11.72,11.72,0,0,0,6.53-1.69,10.5,10.5,0,0,0,3.72-3.81V102.94h-6.13q-11,0-11,9.87a6,6,0,0,0,1.94,4.66A7,7,0,0,0,687.35,119.25Z" transform="translate(-17.08 -36.98)" fill="#413c38"/><path d="M727.72,98.69q0-16.06,6.94-25.31T754,64.13a19.43,19.43,0,0,1,15.25,7.12V37h21.12v96H771.47l-1.06-7.25q-6.49,8.5-16.5,8.5-12.06,0-19.12-9.25T727.72,98.69ZM748.79,100q0,18,10.5,18,7,0,10-5.87V86.38q-2.88-6-9.88-6-9.75,0-10.56,15.75Z" transform="translate(-17.08 -36.98)" fill="#413c38"/><path d="M829.41,103.5l11.25-38.12h22.56l-27.56,78.93-1.19,2.88q-5.87,13.13-20.75,13.12a32.93,32.93,0,0,1-8.68-1.24v-15h2.75a14.45,14.45,0,0,0,6.78-1.28,7.81,7.81,0,0,0,3.47-4.6l1.68-4.5-23.5-68.3h22.5Z" transform="translate(-17.08 -36.98)" fill="#413c38"/><path d="M865.6,51.33a14.62,14.62,0,0,1,1.75-7,13.18,13.18,0,0,1,4.87-5.12,13,13,0,0,1,13.43,0,13.11,13.11,0,0,1,4.87,5.12,15,15,0,0,1,0,14.14,13.33,13.33,0,0,1-4.87,5.12,12.94,12.94,0,0,1-13.4,0,13.33,13.33,0,0,1-4.86-5.13A14.64,14.64,0,0,1,865.6,51.33Zm2.29,0a12.37,12.37,0,0,0,1.4,5.78,11,11,0,0,0,4,4.31,10.67,10.67,0,0,0,11.32,0,11.05,11.05,0,0,0,4-4.3,12.71,12.71,0,0,0,0-11.6,11,11,0,0,0-4-4.28,10.33,10.33,0,0,0-5.63-1.61,10.59,10.59,0,0,0-5.56,1.54,10.92,10.92,0,0,0-4,4.25A12.25,12.25,0,0,0,867.89,51.33Zm8.34,1.42v6.33h-2.84v-16h5.28a6.9,6.9,0,0,1,4.5,1.31,4.46,4.46,0,0,1,1.61,3.65,3.51,3.51,0,0,1-2,3.19,3.28,3.28,0,0,1,1.52,1.65,6.83,6.83,0,0,1,.43,2.6c0,1,0,1.77.07,2.19a3.59,3.59,0,0,0,.25,1.07v.3h-2.91a15.14,15.14,0,0,1-.24-3.64,2.88,2.88,0,0,0-.62-2.06,2.85,2.85,0,0,0-2.07-.63Zm0-2.51h2.41a4.34,4.34,0,0,0,2.37-.6,1.79,1.79,0,0,0,1-1.58,2.29,2.29,0,0,0-.67-1.87,4,4,0,0,0-2.41-.58h-2.65Z" transform="translate(-17.08 -36.98)" fill="#413c38"/></svg>