<svg xmlns="http://www.w3.org/2000/svg" xmlns:xlink="http://www.w3.org/1999/xlink" viewBox="210.6556 142.6139 218.71 200.3398" width="219" height="200">
  <defs>
    <path d="M404.28 251.07c23.64 13.25 32.06 43.16 18.81 66.8-13.25 23.64-43.16 32.06-66.8 18.81-23.64-13.25-32.06-43.16-18.81-66.8 13.26-23.64 43.16-32.06 66.8-18.81z" id="a"/>
    <path d="M245.84 246.4c-11.87 3.46-22.37 11.37-28.92 22.99-13.23 23.6-4.82 53.51 18.78 66.86 23.61 13.23 53.52 4.82 66.87-18.78 6.55-11.75 7.79-25.09 4.45-37.08-3.21-8.28-2.84-18.05 1.86-26.33 4.69-8.28 12.73-13.72 21.38-15.33 11.86-3.46 22.37-11.37 28.92-22.99 13.23-23.6 4.82-53.52-18.79-66.86-23.6-13.23-53.51-4.82-66.86 18.78-6.55 11.75-7.79 25.09-4.45 37.08 3.09 8.28 2.72 18.05-1.98 26.33-4.57 8.28-12.61 13.72-21.26 15.33z" id="b"/>
  </defs>
  <use xlink:href="#a" fill="#ff4612"/>
  <use xlink:href="#a" fill-opacity="0" stroke="#000" stroke-opacity="0"/>
  <use xlink:href="#b" fill="#ff4612"/>
  <use xlink:href="#b" fill-opacity="0" stroke="#000" stroke-opacity="0"/>
</svg>
