<svg id="Layer_1" data-name="Layer 1" xmlns="http://www.w3.org/2000/svg" width="482.27" height="97.25" viewBox="0 0 482.27 97.25"><title>medialogo2</title><path d="M195.89,41l20.31,63.31L236.45,41h28.88v91h-22V110.75l2.12-43.5-22,64.75H209L186.89,67.19,189,110.75V132H167.08V41Z" transform="translate(-32.06 -36)" fill="#413c38"/><path d="M311,133.25q-15.56,0-25.18-9.28T276.2,99.81V98.06A41.57,41.57,0,0,1,280,79.75a28.24,28.24,0,0,1,11.22-12.28,33.83,33.83,0,0,1,17.5-4.34q14.25,0,22.5,8.84t8.25,24.66v8.18H297.64a15.16,15.16,0,0,0,4.94,8.94,14.66,14.66,0,0,0,9.87,3.25q10,0,15.63-7l9.62,11.38A26.82,26.82,0,0,1,326.54,130,37.63,37.63,0,0,1,311,133.25Zm-2.37-53.87q-9.25,0-11,12.25h21.25V90c.08-3.37-.77-6-2.56-7.84S312,79.38,308.64,79.38Z" transform="translate(-32.06 -36)" fill="#413c38"/><path d="M345.33,97.69q0-16.06,6.93-25.31t19.38-9.25a19.43,19.43,0,0,1,15.25,7.12V36H408v96H389.08L388,124.75q-6.5,8.5-16.5,8.5-12.06,0-19.12-9.25T345.33,97.69ZM366.39,99q0,18,10.5,18,7,0,10-5.87V85.38q-2.88-6-9.88-6-9.75,0-10.56,15.75Z" transform="translate(-32.06 -36)" fill="#413c38"/><path d="M419.83,46.94a9.41,9.41,0,0,1,3.25-7.38,13.83,13.83,0,0,1,16.87,0,9.41,9.41,0,0,1,3.25,7.38A9.37,9.37,0,0,1,440,54.31a13.79,13.79,0,0,1-16.87,0A9.37,9.37,0,0,1,419.83,46.94ZM442.2,132H421.08V64.38H442.2Z" transform="translate(-32.06 -36)" fill="#413c38"/><path d="M493.26,132a24,24,0,0,1-2-6.06q-5.81,7.31-16.25,7.31a24,24,0,0,1-16.25-5.78,18.39,18.39,0,0,1-6.68-14.53q0-11,8.12-16.63t23.63-5.62h6.5V87.11q0-9.36-8.07-9.36-7.5,0-7.5,7.41H453.7q0-9.8,8.34-15.92t21.29-6.11q12.93,0,20.43,6.31t7.69,17.31v29.94q.12,9.32,2.88,14.25V132Zm-13.18-13.75a11.72,11.72,0,0,0,6.53-1.69,10.59,10.59,0,0,0,3.72-3.81V101.94H484.2q-11,0-11,9.87a6,6,0,0,0,1.94,4.66A7,7,0,0,0,480.08,118.25Z" transform="translate(-32.06 -36)" fill="#413c38"/><path d="M37.16,127.35A17.44,17.44,0,0,1,54.4,98.28l0,0a9.39,9.39,0,0,0,9.55-13.34l0,0a33.28,33.28,0,1,1,15.62,15.61l0,0a9.39,9.39,0,0,0-13.34,9.55l0,0a17.45,17.45,0,0,1-29.08,17.23ZM94,87.48A16.73,16.73,0,1,0,77.31,70.76,16.73,16.73,0,0,0,94,87.48Z" transform="translate(-32.06 -36)" fill="#00b2e3"/></svg>