<svg xmlns="http://www.w3.org/2000/svg" viewBox="0 0 122.271 122.27">
  <defs>
    <style>
      .cls-1 {
        fill: #4f7de6;
      }

      .cls-2 {
        fill: #fff;
      }
    </style>
  </defs>
  <g id="Group_763" data-name="Group 763" transform="translate(-1030.863 -617.193)">
    <rect id="Rectangle_2389" data-name="Rectangle 2389" class="cls-1" width="122.27" height="122.27" rx="38" transform="translate(1030.863 617.193)"/>
    <path id="book-solid" class="cls-2" d="M61.25,49.219V3.281A3.273,3.273,0,0,0,57.969,0H13.125A13.128,13.128,0,0,0,0,13.125v43.75A13.128,13.128,0,0,0,13.125,70H57.969a3.273,3.273,0,0,0,3.281-3.281V64.531a3.307,3.307,0,0,0-1.217-2.557,30.489,30.489,0,0,1,0-10.213,3.258,3.258,0,0,0,1.217-2.543ZM17.5,18.32a.823.823,0,0,1,.82-.82H47.3a.823.823,0,0,1,.82.82v2.734a.823.823,0,0,1-.82.82H18.32a.823.823,0,0,1-.82-.82Zm0,8.75a.823.823,0,0,1,.82-.82H47.3a.823.823,0,0,1,.82.82V29.8a.823.823,0,0,1-.82.82H18.32a.823.823,0,0,1-.82-.82ZM52.145,61.25H13.125a4.375,4.375,0,0,1,0-8.75h39.02A49.222,49.222,0,0,0,52.145,61.25Z" transform="translate(1061 643.418)"/>
  </g>
</svg>
