<svg id="_4f34ac5b-06a5-4e9f-a3b4-7a11c2245422" data-name="4f34ac5b-06a5-4e9f-a3b4-7a11c2245422" xmlns="http://www.w3.org/2000/svg" xmlns:xlink="http://www.w3.org/1999/xlink" width="946" height="656.82" viewBox="0 0 946 656.82"><defs><linearGradient id="linear-gradient" x1="234.56" y1="379.62" x2="234.56" y2="431.65" gradientTransform="matrix(1, 0, 0, -1, -127, 544.21)" gradientUnits="userSpaceOnUse"><stop offset="0" stop-color="gray" stop-opacity="0.25"/><stop offset="0.54" stop-color="gray" stop-opacity="0.12"/><stop offset="1" stop-color="gray" stop-opacity="0.1"/></linearGradient><linearGradient id="linear-gradient-2" x1="593" y1="494.21" x2="593" y2="535.21" xlink:href="#linear-gradient"/><linearGradient id="linear-gradient-3" x1="473" y1="-0.02" x2="473" y2="39.62" gradientTransform="matrix(1, 0, 0, -1, 0, 656.8)" xlink:href="#linear-gradient"/><linearGradient id="linear-gradient-4" x1="480.94" y1="35.8" x2="480.94" y2="55.2" gradientTransform="matrix(1, 0, 0, -1, 0, 656.8)" xlink:href="#linear-gradient"/><linearGradient id="linear-gradient-5" x1="608.02" y1="25.64" x2="608.02" y2="389.21" xlink:href="#linear-gradient"/><linearGradient id="linear-gradient-6" x1="275.92" y1="-81.11" x2="275.92" y2="16.39" xlink:href="#linear-gradient"/><linearGradient id="linear-gradient-7" x1="235.47" y1="-56.47" x2="235.47" y2="6.73" xlink:href="#linear-gradient"/><radialGradient id="radial-gradient" cx="340.11" cy="-606.7" r="50.56" gradientTransform="translate(81.95 736.58) rotate(-13.32)" gradientUnits="userSpaceOnUse"><stop offset="0.09" stop-color="#fa8f21"/><stop offset="0.78" stop-color="#d82d7e"/></radialGradient><radialGradient id="radial-gradient-2" cx="365.12" cy="-607.98" r="44.49" gradientTransform="translate(81.95 736.58) rotate(-13.32)" gradientUnits="userSpaceOnUse"><stop offset="0.64" stop-color="#8c3aaa" stop-opacity="0"/><stop offset="1" stop-color="#8c3aaa"/></radialGradient><linearGradient id="linear-gradient-8" x1="371.9" y1="426.23" x2="371.9" y2="452.15" gradientTransform="matrix(1, 0, 0, -1, 0, 656.8)" gradientUnits="userSpaceOnUse"><stop offset="0" stop-color="#b3b3b3" stop-opacity="0.25"/><stop offset="0.54" stop-color="#b3b3b3" stop-opacity="0.1"/><stop offset="1" stop-color="#b3b3b3" stop-opacity="0.05"/></linearGradient><linearGradient id="linear-gradient-9" x1="420.71" y1="445.76" x2="420.71" y2="449.14" xlink:href="#linear-gradient-8"/><linearGradient id="linear-gradient-10" x1="431.35" y1="437.88" x2="431.35" y2="441.26" xlink:href="#linear-gradient-8"/><linearGradient id="linear-gradient-11" x1="371.9" y1="369.86" x2="371.9" y2="395.77" xlink:href="#linear-gradient-8"/><linearGradient id="linear-gradient-12" x1="420.71" y1="389.39" x2="420.71" y2="392.77" xlink:href="#linear-gradient-8"/><linearGradient id="linear-gradient-13" x1="431.35" y1="381.5" x2="431.35" y2="384.88" xlink:href="#linear-gradient-8"/><linearGradient id="linear-gradient-14" x1="371.9" y1="313.82" x2="371.9" y2="339.73" xlink:href="#linear-gradient-8"/><linearGradient id="linear-gradient-15" x1="420.71" y1="333.35" x2="420.71" y2="336.73" xlink:href="#linear-gradient-8"/><linearGradient id="linear-gradient-16" x1="431.35" y1="325.46" x2="431.35" y2="328.84" xlink:href="#linear-gradient-8"/><linearGradient id="linear-gradient-17" x1="371.9" y1="257.44" x2="371.9" y2="283.36" xlink:href="#linear-gradient-8"/><linearGradient id="linear-gradient-18" x1="420.71" y1="276.97" x2="420.71" y2="280.35" xlink:href="#linear-gradient-8"/><linearGradient id="linear-gradient-19" x1="431.35" y1="269.08" x2="431.35" y2="272.46" xlink:href="#linear-gradient-8"/></defs><title>pcsocial4</title><g opacity="0.1"><path d="M279.06,70.17a13.82,13.82,0,0,1-4.58.23A8.07,8.07,0,0,1,268.93,67a13.17,13.17,0,0,1-1.85-4.2c-.7-2.46-.91-3.2-2.4-9.52s-1.67-7.06-2.12-9.58a13.33,13.33,0,0,1-.24-4.54A7.66,7.66,0,0,1,263.44,36a7.46,7.46,0,0,1,2.3-2.41,13.37,13.37,0,0,1,4.2-1.85c2.47-.7,3.21-.91,9.52-2.4s7.06-1.67,9.58-2.12a13.37,13.37,0,0,1,4.59-.23,8,8,0,0,1,5.55,3.42,13.63,13.63,0,0,1,1.85,4.2c.7,2.47.9,3.2,2.39,9.52s1.68,7.06,2.13,9.58a13.82,13.82,0,0,1,.23,4.58,8,8,0,0,1-3.43,5.55,13.17,13.17,0,0,1-4.2,1.85c-2.46.7-3.2.91-9.52,2.4s-7.06,1.67-9.58,2.12" transform="translate(0 -6)"/><path d="M279.06,70.17a13.82,13.82,0,0,1-4.58.23A8.07,8.07,0,0,1,268.93,67a13.17,13.17,0,0,1-1.85-4.2c-.7-2.46-.91-3.2-2.4-9.52s-1.67-7.06-2.12-9.58a13.33,13.33,0,0,1-.24-4.54A7.66,7.66,0,0,1,263.44,36a7.46,7.46,0,0,1,2.3-2.41,13.37,13.37,0,0,1,4.2-1.85c2.47-.7,3.21-.91,9.52-2.4s7.06-1.67,9.58-2.12a13.37,13.37,0,0,1,4.59-.23,8,8,0,0,1,5.55,3.42,13.63,13.63,0,0,1,1.85,4.2c.7,2.47.9,3.2,2.39,9.52s1.68,7.06,2.13,9.58a13.82,13.82,0,0,1,.23,4.58,8,8,0,0,1-3.43,5.55,13.17,13.17,0,0,1-4.2,1.85c-2.46.7-3.2.91-9.52,2.4s-7.06,1.67-9.58,2.12" transform="translate(0 -6)"/><path d="M279.31,49.87a4.93,4.93,0,1,1,5.93,3.66,4.92,4.92,0,0,1-5.93-3.66h0m-2.58.61a7.59,7.59,0,1,0,5.64-9.13,7.59,7.59,0,0,0-5.64,9.13h0m11.53-10.84a1.77,1.77,0,1,0,1.31-2.13h0a1.77,1.77,0,0,0-1.31,2.13m-7.18,22.19a8.18,8.18,0,0,1-2.79.13,4.93,4.93,0,0,1-3.38-2.08,8.22,8.22,0,0,1-1.13-2.55c-.42-1.5-.55-1.95-1.46-5.8s-1-4.31-1.29-5.85a8.12,8.12,0,0,1-.14-2.78A4.92,4.92,0,0,1,273,39.52a8.22,8.22,0,0,1,2.55-1.13c1.5-.43,2-.55,5.79-1.46s4.31-1,5.84-1.29A8.19,8.19,0,0,1,290,35.5a4.92,4.92,0,0,1,3.38,2.09,8.22,8.22,0,0,1,1.13,2.55c.43,1.5.55,2,1.46,5.8s1,4.3,1.29,5.84a8.19,8.19,0,0,1,.14,2.79,4.9,4.9,0,0,1-2.09,3.37,8,8,0,0,1-2.55,1.14c-1.5.42-1.95.55-5.8,1.46s-4.3,1-5.83,1.29m-6.28-26a11.05,11.05,0,0,0-3.34,1.5,7.57,7.57,0,0,0-3.21,5.21,10.72,10.72,0,0,0,.15,3.66c.3,1.55.39,2,1.32,5.95s1,4.4,1.49,5.91a11.05,11.05,0,0,0,1.5,3.34,7.58,7.58,0,0,0,5.21,3.22,10.92,10.92,0,0,0,3.65-.16c1.55-.29,2.05-.39,6-1.32s4.4-1,5.91-1.49a10.81,10.81,0,0,0,3.34-1.5A7.58,7.58,0,0,0,300,54.94a10.91,10.91,0,0,0-.15-3.65c-.3-1.55-.4-2-1.32-6s-1-4.4-1.49-5.91a11.05,11.05,0,0,0-1.5-3.34,7.6,7.6,0,0,0-5.21-3.21,10.72,10.72,0,0,0-3.66.16c-1.55.29-2,.39-6,1.31s-4.4,1-5.91,1.49" transform="translate(0 -6)"/></g><path d="M102.44,126.18l2.81,4.13,6.62-4.5,4.23,8-5.79,3.94,14,20.66-9.1,6.18L101.2,143.92l-4.13,2.81L92,139.31l4.13-2.81-2.79-4.09s-6.09-7.35.43-13.59l9.1-6.18,4.5,6.62-4.13,2.81A3,3,0,0,0,102.44,126.18Z" transform="translate(0 -6)" fill="url(#linear-gradient)"/><path d="M104.44,123.18l2.81,4.13,6.62-4.5,4.23,8-5.79,3.94,14,20.66-9.1,6.18L103.2,140.92l-4.13,2.81L94,136.31l4.13-2.81-2.79-4.09s-6.09-7.35.43-13.59l9.1-6.18,4.5,6.62-4.13,2.81A3,3,0,0,0,104.44,123.18Z" transform="translate(0 -6)" fill="#3b5998"/><path d="M486,16l5-1s-4.2,4.7-5,5h0a21.45,21.45,0,0,0,0,3c-9.6,41.2-45,23-45,23,12.9.3,14-5,14-5-7.5-1.1-9-6-9-6a3.1,3.1,0,0,0,4-1c-8.1-2.1-7-10-7-10a10.37,10.37,0,0,0,4.9,1.9c-.9-1.1-8.5-10.2-3.9-14.9,0,0,5.6,10,20.3,10.9l1-.2a7.75,7.75,0,0,1-.2-2.2A10.5,10.5,0,0,1,475.6,9c7,0,8.5,4,8.5,4l5-3C489,10,488.5,15,486,16Z" transform="translate(0 -6)" fill="url(#linear-gradient-2)"/><path d="M488,13l5-1s-4.2,4.7-5,5h0a21.45,21.45,0,0,0,0,3c-9.6,41.2-45,23-45,23,12.9.3,14-5,14-5-7.5-1.1-9-6-9-6a3.1,3.1,0,0,0,4-1c-8.1-2.1-7-10-7-10a10.37,10.37,0,0,0,4.9,1.9C449,21.8,441.4,12.7,446,8c0,0,5.6,10,20.3,10.9l1-.2a7.75,7.75,0,0,1-.2-2.2A10.5,10.5,0,0,1,477.6,6c7,0,8.5,4,8.5,4l5-3C491,7,490.5,12,488,13Z" transform="translate(0 -6)" fill="#00aced"/><path d="M853.11,138.8c1-.92,1.16-1.93-.42-2.88l-5.23-3.16a2.61,2.61,0,0,0-3.17.11s-6.59,4.88-12.89,6.82c-2,.48-2.75.53-3.42.13-.33-.2-.6-.89.07-2l6.26-10.37c.8-1.33.79-2.15-.31-2.82l-8.23-5a1.47,1.47,0,0,0-2,.39c-.76,1.27.94,2.69-1,6.37l-4.65,7.71c-1,1.68-1.51,1.81-2.17,1.41-1.78-1.07-2.16-10.2-.22-19.2.36-1.76.21-2.65-1.13-3.46l-5.23-3.16c-1.49-.9-2.22-.38-2.69.4-.84,1.38-3.22,9.34-2.22,22.35.58,8.82,4.64,15.87,10.19,19.21,3.33,2,4.19,1.52,5,.23,3.58-5.94,3.62-6.68,5.29-5.67.77.47,1.87,1.66,3.17,6.53,1.41,5.7,1,7.64,3,8.84l5.23,3.16c1.49.9,2.69.61,3.15-1.12.88-3.7-2-14.14-2-14.75-.17-1.46.32-1.77,1.4-2.33,0,0,11.83-5.13,14.33-7.78Z" transform="translate(0 -6)" opacity="0.1"/><rect y="617.18" width="946" height="39.64" fill="url(#linear-gradient-3)"/><rect x="3.21" y="617.18" width="938.5" height="33.21" fill="#f5f5f5"/><path d="M549.74,485.15S563.35,577,643.62,607.6H318.45c80.27-30.61,93.88-122.45,93.88-122.45Z" transform="translate(0 -6)" fill="#e0e0e0"/><rect x="316.82" y="601.6" width="328.23" height="19.4" fill="url(#linear-gradient-4)"/><rect x="318.45" y="601.6" width="325.16" height="14.97" fill="#f5f5f5"/><path d="M745.44,155H216.63A10.72,10.72,0,0,0,206,165.81V477.13c0,22.89,18.16,41.44,40.56,41.44H715.48c22.4,0,40.56-18.55,40.56-41.44V165.83A10.72,10.72,0,0,0,745.44,155Z" transform="translate(0 -6)" fill="url(#linear-gradient-5)"/><path d="M223.43,163.73H738.64a10.75,10.75,0,0,1,10.75,10.75h0V460.66H212.67V174.48a10.75,10.75,0,0,1,10.75-10.75Z" transform="translate(0 -6)" fill="#fff"/><path d="M670.76,34.56a7.12,7.12,0,0,0-4.49-5.51c-4.28-1.63-21.91-3.38-21.91-3.38s-17.64-1.75-22.16-1a7.13,7.13,0,0,0-5.48,4.53c-1.62,4.31-2.54,13.54-2.54,13.54S613.27,52,614,56.52A7,7,0,0,0,618.5,62c4.28,1.62,21.92,3.37,21.92,3.37s17.64,1.75,22.15,1a7,7,0,0,0,5.48-4.44c1.62-4.31,2.53-13.55,2.53-13.55S671.5,39.1,670.76,34.56Zm-35,18.8,1.67-16.78,13.91,9.85-15.58,6.93Z" transform="translate(0 -6)" opacity="0.1"/><path d="M708.25,509.64H253.82a41.15,41.15,0,0,1-41.15-41.15h0v-7.83H749.4v7.83a41.15,41.15,0,0,1-41.15,41.15Z" transform="translate(0 -6)" fill="#f5f5f5"/><rect x="239.2" y="181.78" width="485.7" height="239.7" fill="#536dfe"/><path d="M186.2,625.32H111.63a4.49,4.49,0,0,1-4.5-4.5v-93H190.7v93A4.49,4.49,0,0,1,186.2,625.32Z" transform="translate(0 -6)" fill="url(#linear-gradient-6)"/><path d="M108.47,600.68c-13.73,0-24.91-14.18-24.91-31.6s11.17-31.6,24.91-31.6,24.91,14.18,24.91,31.6S122.21,600.68,108.47,600.68Zm0-57.46c-10.68,0-19.37,11.6-19.37,25.86s8.69,25.86,19.37,25.86,19.37-11.6,19.37-25.86S119.16,543.22,108.47,543.22Z" transform="translate(0 -6)" fill="url(#linear-gradient-7)"/><path d="M109.28,598C96,598,85.17,584.78,85.17,568.54S96,539.08,109.28,539.08s24.11,13.22,24.11,29.46S122.57,598,109.28,598Zm0-53.57c-10.34,0-18.75,10.81-18.75,24.11s8.41,24.11,18.75,24.11S128,581.83,128,568.54s-8.38-24.13-18.72-24.13Z" transform="translate(0 -6)" fill="#536dfe"/><path d="M109,528.9h79.85v88.71a4.49,4.49,0,0,1-4.5,4.5H113.49a4.49,4.49,0,0,1-4.5-4.5V528.9Z" transform="translate(0 -6)" fill="#536dfe"/><path d="M674.43,31.56a7.12,7.12,0,0,0-4.49-5.51C665.66,24.42,648,22.67,648,22.67s-17.63-1.75-22.15-1a7.16,7.16,0,0,0-5.49,4.53c-1.61,4.31-2.53,13.54-2.53,13.54s-.92,9.24-.18,13.78a7,7,0,0,0,4.5,5.44c4.28,1.62,21.92,3.37,21.92,3.37s17.63,1.75,22.15,1a7,7,0,0,0,5.48-4.44c1.61-4.31,2.53-13.55,2.53-13.55S675.17,36.1,674.43,31.56Zm-35,18.8,1.66-16.78L655,43.43l-15.57,6.93Z" transform="translate(0 -6)" fill="red"/><path d="M280.69,66.81a13.3,13.3,0,0,1-4.58.23,8.06,8.06,0,0,1-5.55-3.42,13.37,13.37,0,0,1-1.85-4.2c-.7-2.47-.91-3.21-2.4-9.52s-1.67-7.06-2.12-9.58a13.33,13.33,0,0,1-.24-4.54,7.65,7.65,0,0,1,1.12-3.14,7.56,7.56,0,0,1,2.3-2.41,13.6,13.6,0,0,1,4.2-1.85c2.47-.7,3.21-.9,9.52-2.4s7.06-1.67,9.58-2.12a13.63,13.63,0,0,1,4.59-.23,8.06,8.06,0,0,1,5.55,3.43,13.63,13.63,0,0,1,1.85,4.2c.7,2.47.9,3.2,2.39,9.51s1.68,7.07,2.13,9.59a13.82,13.82,0,0,1,.23,4.58A8,8,0,0,1,304,60.49a13.4,13.4,0,0,1-4.2,1.85c-2.46.7-3.2.9-9.52,2.4s-7.06,1.67-9.58,2.12" transform="translate(0 -6)" fill="url(#radial-gradient)"/><path d="M280.69,66.81a13.3,13.3,0,0,1-4.58.23,8.06,8.06,0,0,1-5.55-3.42,13.37,13.37,0,0,1-1.85-4.2c-.7-2.47-.91-3.21-2.4-9.52s-1.67-7.06-2.12-9.58a13.33,13.33,0,0,1-.24-4.54,7.65,7.65,0,0,1,1.12-3.14,7.56,7.56,0,0,1,2.3-2.41,13.6,13.6,0,0,1,4.2-1.85c2.47-.7,3.21-.9,9.52-2.4s7.06-1.67,9.58-2.12a13.63,13.63,0,0,1,4.59-.23,8.06,8.06,0,0,1,5.55,3.43,13.63,13.63,0,0,1,1.85,4.2c.7,2.47.9,3.2,2.39,9.51s1.68,7.07,2.13,9.59a13.82,13.82,0,0,1,.23,4.58A8,8,0,0,1,304,60.49a13.4,13.4,0,0,1-4.2,1.85c-2.46.7-3.2.9-9.52,2.4s-7.06,1.67-9.58,2.12" transform="translate(0 -6)" fill="url(#radial-gradient-2)"/><path d="M280.94,46.52a4.93,4.93,0,1,1,5.93,3.66,4.92,4.92,0,0,1-5.93-3.66h0m-2.58.61A7.59,7.59,0,1,0,284,38a7.59,7.59,0,0,0-5.64,9.14h0m11.53-10.84a1.77,1.77,0,1,0,1.31-2.13h0a1.76,1.76,0,0,0-1.31,2.13m-7.18,22.19a8.44,8.44,0,0,1-2.79.13,5,5,0,0,1-3.38-2.08A8.27,8.27,0,0,1,275.41,54c-.42-1.5-.55-1.95-1.46-5.8s-1-4.3-1.29-5.84a8.17,8.17,0,0,1-.14-2.79,4.9,4.9,0,0,1,2.09-3.37A8,8,0,0,1,277.16,35c1.5-.43,1.95-.56,5.79-1.47s4.31-1,5.84-1.29a8.44,8.44,0,0,1,2.79-.13A4.9,4.9,0,0,1,295,34.23a8.32,8.32,0,0,1,1.13,2.55c.43,1.5.55,2,1.46,5.81s1,4.3,1.29,5.84a8.17,8.17,0,0,1,.14,2.79,4.92,4.92,0,0,1-2.09,3.37,8.22,8.22,0,0,1-2.55,1.13c-1.5.43-1.95.56-5.8,1.47s-4.3,1-5.83,1.29m-6.28-26a11.05,11.05,0,0,0-3.34,1.5,7.57,7.57,0,0,0-3.21,5.21,10.66,10.66,0,0,0,.15,3.65c.3,1.55.39,2,1.32,6s1,4.4,1.49,5.91a11.05,11.05,0,0,0,1.5,3.34,7.6,7.6,0,0,0,5.21,3.21,10.91,10.91,0,0,0,3.65-.15c1.55-.3,2.05-.4,6-1.32s4.4-1,5.91-1.49a11.05,11.05,0,0,0,3.34-1.5,7.6,7.6,0,0,0,3.21-5.21,11,11,0,0,0-.15-3.66c-.3-1.54-.4-2-1.32-6s-1-4.4-1.49-5.91a11.05,11.05,0,0,0-1.5-3.34A7.57,7.57,0,0,0,292,29.52a10.72,10.72,0,0,0-3.66.15c-1.55.3-2,.4-6,1.32s-4.4,1-5.91,1.49" transform="translate(0 -6)" fill="#fff"/><path d="M854.89,138.15c1-.88,1.23-1.89-.31-2.9l-5.12-3.34a2.63,2.63,0,0,0-3.17,0s-6.75,4.65-13.13,6.37c-2,.41-2.76.44-3.41,0-.32-.21-.57-.91.14-2l6.62-10.14c.85-1.3.86-2.12-.22-2.83l-8-5.25a1.47,1.47,0,0,0-2.07.33c-.81,1.23.85,2.72-1.23,6.32L820,132.26c-1.08,1.65-1.57,1.76-2.22,1.34-1.74-1.14-1.8-10.27.46-19.2.42-1.75.3-2.64-1-3.5l-5.12-3.34c-1.46-1-2.2-.46-2.7.31-.89,1.35-3.54,9.22-3,22.26.27,8.84,4.08,16,9.5,19.56,3.26,2.12,4.14,1.65,5,.39,3.79-5.8,3.85-6.54,5.48-5.47.76.49,1.81,1.72,2.94,6.63,1.21,5.75.77,7.68,2.71,8.95l5.12,3.34c1.46.95,2.68.7,3.19-1,1-3.67-1.5-14.2-1.52-14.81-.12-1.46.38-1.76,1.48-2.27,0,0,12-4.72,14.59-7.28Z" transform="translate(0 -6)" fill="#45668e"/><rect x="358.56" y="204.65" width="26.68" height="25.92" rx="2.42" ry="2.42" fill="url(#linear-gradient-8)"/><rect x="395.04" y="207.66" width="51.34" height="3.38" fill="url(#linear-gradient-9)"/><rect x="395.04" y="215.54" width="72.62" height="3.38" fill="url(#linear-gradient-10)"/><rect x="358.56" y="261.03" width="26.68" height="25.92" rx="2.42" ry="2.42" fill="url(#linear-gradient-11)"/><rect x="395.04" y="264.03" width="51.34" height="3.38" fill="url(#linear-gradient-12)"/><rect x="395.04" y="271.92" width="72.62" height="3.38" fill="url(#linear-gradient-13)"/><rect x="358.56" y="317.07" width="26.68" height="25.92" rx="2.42" ry="2.42" fill="url(#linear-gradient-14)"/><rect x="395.04" y="320.07" width="51.34" height="3.38" fill="url(#linear-gradient-15)"/><rect x="395.04" y="327.96" width="72.62" height="3.38" fill="url(#linear-gradient-16)"/><rect x="358.56" y="373.44" width="26.68" height="25.92" rx="2.42" ry="2.42" fill="url(#linear-gradient-17)"/><rect x="395.04" y="376.45" width="51.34" height="3.38" fill="url(#linear-gradient-18)"/><rect x="395.04" y="384.34" width="72.62" height="3.38" fill="url(#linear-gradient-19)"/><rect x="348.89" y="200.16" width="250.7" height="32.5" rx="5.37" ry="5.37" fill="#fff"/><rect x="360.67" y="205.3" width="26.2" height="22.88" rx="2.42" ry="2.42" fill="#536dfe"/><rect x="396.48" y="207.95" width="50.4" height="2.99" fill="#bdbdbd"/><rect x="396.48" y="214.91" width="71.3" height="2.99" fill="#e0e0e0"/><rect x="348.89" y="256.53" width="250.7" height="32.5" rx="5.37" ry="5.37" fill="#fff"/><rect x="360.67" y="261.67" width="26.2" height="22.88" rx="2.42" ry="2.42" fill="#536dfe"/><rect x="396.48" y="264.32" width="50.4" height="2.99" fill="#bdbdbd"/><rect x="396.48" y="271.29" width="71.3" height="2.99" fill="#64ffda"/><rect x="348.89" y="312.9" width="250.7" height="32.5" rx="5.37" ry="5.37" fill="#fff"/><rect x="360.67" y="318.05" width="26.2" height="22.88" rx="2.42" ry="2.42" fill="#536dfe"/><rect x="396.48" y="320.7" width="50.4" height="2.99" fill="#bdbdbd"/><rect x="396.48" y="327.66" width="71.3" height="2.99" fill="#e0e0e0"/><rect x="348.89" y="369.28" width="250.7" height="32.5" rx="5.37" ry="5.37" fill="#fff"/><rect x="360.67" y="374.42" width="26.2" height="22.88" rx="2.42" ry="2.42" fill="#536dfe"/><rect x="396.48" y="377.07" width="50.4" height="2.99" fill="#bdbdbd"/><rect x="396.48" y="384.04" width="71.3" height="2.99" fill="#64ffda"/></svg>