<svg xmlns="http://www.w3.org/2000/svg" viewBox="0 0 122.27 122.27">
  <defs>
    <style>
      .cls-1 {
        fill: #00af9a;
      }

      .cls-2 {
        fill: #fff;
      }
    </style>
  </defs>
  <g id="Group_251" data-name="Group 251" transform="translate(-414 -609.631)">
    <rect id="Rectangle_1728" data-name="Rectangle 1728" class="cls-1" width="122.27" height="122.27" rx="38" transform="translate(414 609.631)"/>
    <path id="list-ul-solid" class="cls-2" d="M13.695,54.847A6.847,6.847,0,1,1,6.847,48,6.847,6.847,0,0,1,13.695,54.847ZM6.847,70.825a6.847,6.847,0,1,0,6.847,6.847A6.847,6.847,0,0,0,6.847,70.825Zm0,22.825a6.847,6.847,0,1,0,6.847,6.847A6.847,6.847,0,0,0,6.847,93.649ZM20.542,59.983H70.757A2.282,2.282,0,0,0,73.039,57.7V51.994a2.282,2.282,0,0,0-2.282-2.282H20.542a2.282,2.282,0,0,0-2.282,2.282V57.7A2.282,2.282,0,0,0,20.542,59.983Zm0,22.825H70.757a2.282,2.282,0,0,0,2.282-2.282V74.819a2.282,2.282,0,0,0-2.282-2.282H20.542a2.282,2.282,0,0,0-2.282,2.282v5.706A2.282,2.282,0,0,0,20.542,82.808Zm0,22.825H70.757a2.282,2.282,0,0,0,2.282-2.282V97.644a2.282,2.282,0,0,0-2.282-2.282H20.542a2.282,2.282,0,0,0-2.282,2.282v5.706A2.282,2.282,0,0,0,20.542,105.632Z" transform="translate(439 593.374)"/>
  </g>
</svg>
