<svg xmlns="http://www.w3.org/2000/svg" viewBox="0 0 506.793 336.444">
  <defs>
    <style>
      .cls-1, .cls-5, .cls-6 {
        fill: #009688;
      }

      .cls-1, .cls-3, .cls-8 {
        opacity: 0.1;
      }

      .cls-2 {
        fill: #6c63ff;
      }

      .cls-4, .cls-8 {
        fill: #fff;
      }

      .cls-6, .cls-7 {
        opacity: 0.3;
      }

      .cls-9 {
        fill: #efc8c4;
      }

      .cls-10 {
        fill: #727a9c;
      }

      .cls-11 {
        fill: #3acc6c;
      }

      .cls-12 {
        fill: #ffd037;
      }
    </style>
  </defs>
  <g id="Group_1046" data-name="Group 1046" transform="translate(-693 -231.614)">
    <path id="Path_1043" data-name="Path 1043" class="cls-1" d="M178.779,69.41C195.973,53.923,222.965,50.769,247.532,52,324.7,55.874,394.354,93.49,454.607,136.04c21.812,15.4,43.287,32.019,57.459,53.217,28.826,43.182,20.273,103-19.8,138.576-13.637,12.106-30.168,21.383-47.138,29.611-30.172,14.624-62.722,26.361-96.974,29.7-24.422,2.382-49.125.439-73.424-2.877-67.832-9.29-134.414-29.826-190.223-64.977-24.488-15.413-47.559-34.576-57.647-59.525s-3.632-56.533,21.361-71.293c10.338-6.106,22.694-8.86,34.8-11.452,17.812-3.807,35.905-7.566,51.98-15.312,16.6-8,36.256-23.475,32.971-41.186C164.436,101.539,161.607,84.849,178.779,69.41Z" transform="translate(670.703 179.854)"/>
    <path id="Path_774" data-name="Path 774" class="cls-2" d="M279,497.039s4.319-3.095,8.788-1.183c0,0-1.25,2.657-6.818,2.624Z" transform="translate(568.918 -83.783)"/>
    <path id="Path_810" data-name="Path 810" class="cls-2" d="M320.84,435.594s5.044-1.666,8.747,1.487c0,0-1.987,2.166-7.293.475Z" transform="translate(544.505 -48.727)"/>
    <path id="Path_811" data-name="Path 811" class="cls-2" d="M317.71,436.23s-2.641,4.611-.287,8.863c0,0,2.5-1.512,1.92-7.047Z" transform="translate(547.068 -49.355)"/>
    <path id="Path_812" data-name="Path 812" class="cls-2" d="M309.75,418.7s1.458-4.132,10.6-.162c0,0-.687,2.736-4.382,3.12S311.041,420.544,309.75,418.7Z" transform="translate(550.976 -38.026)"/>
    <path id="Path_813" data-name="Path 813" class="cls-2" d="M303.6,420.89s-4.373.208-3.2,10.109c0,0,2.82.125,4.248-3.3S305,422.656,303.6,420.89Z" transform="translate(556.549 -40.404)"/>
    <path id="Path_814" data-name="Path 814" class="cls-2" d="M299.3,396.5s1.329-7.081,10.867-3.749c0,0-1,6.468-9.6,5.881Z" transform="translate(557.073 -23.465)"/>
    <path id="Path_815" data-name="Path 815" class="cls-2" d="M288.94,374.072s3.457-7.5,12.554-2.532c0,0-1.8,6.81-11.475,4.84Z" transform="translate(563.118 -10.618)"/>
    <path id="Path_816" data-name="Path 816" class="cls-2" d="M282.9,352.086s4.311-7.081,13.328-2.162c0,0-4.165,6.273-13.066,3.749Z" transform="translate(566.643 2.018)"/>
    <path id="Path_828" data-name="Path 828" class="cls-2" d="M285.964,402.227s-6.664-2.766-9.084,7.047c0,0,5.96,2.7,10.175-4.819Z" transform="translate(570.155 -29.305)"/>
    <path id="Path_849" data-name="Path 849" class="cls-3" d="M432.206,501.747l-41.78,16.165-61.068,23.6c-2.3-4.278-5.7-10.129-9.909-17.077-14.461-23.97-38.394-61.251-59.694-94.014-24.007-36.915-44.666-68.086-44.666-68.086L230.047,358l122.17-35.432Z" transform="translate(604.209 14.965)"/>
    <path id="Path_850" data-name="Path 850" class="cls-4" d="M434.206,494.747l-41.78,16.165-61.068,23.6c-2.3-4.278-5.7-10.129-9.909-17.077-14.461-23.97-38.394-61.252-59.694-94.014-24.007-36.915-44.666-68.086-44.666-68.086L232.047,351l122.17-35.432Z" transform="translate(605.043 21.049)"/>
    <path id="Path_851" data-name="Path 851" class="cls-3" d="M455.16,494.747l-41.78,16.165a314.218,314.218,0,0,1-70.977,6.527c-14.461-23.97-38.394-61.251-59.694-94.014L253,351,375.17,315.57Z" transform="translate(584.089 21.049)"/>
    <path id="Path_852" data-name="Path 852" class="cls-5" d="M478.075,459.719s-64.908,38.394-161.813,29.73L239,301.109l37.023-6.36L404.007,272.77l72.618,183.309Z" transform="translate(592.258 46.023)"/>
    <path id="Path_853" data-name="Path 853" class="cls-3" d="M528.515,456.079a307.3,307.3,0,0,1-50.756-1.441c-19.251-2.257-38.594-6.931-55.212-15.486C408.67,432,396.8,424.233,386.453,414.907c-26.911-24.207-43.567-58.836-58.523-120.158L455.914,272.77Z" transform="translate(540.368 46.023)"/>
    <path id="Path_854" data-name="Path 854" class="cls-4" d="M563.96,368.709s-47.865,9.38-96.538,3.6c-19.251-2.27-38.614-6.931-55.212-15.486-13.878-7.151-25.744-14.919-36.094-24.245-33.321-29.988-50.9-75.9-69.036-168.648,0,0,79.553,19.2,158.152-22.854C465.232,141.08,491.742,306.546,563.96,368.709Z" transform="translate(552.534 122.863)"/>
    <path id="Path_855" data-name="Path 855" class="cls-3" d="M564.136,615.64c-19.251-2.27-38.614-6.931-55.212-15.486C495.046,593,483.18,585.235,472.83,575.91c28.36-2.3,32.438-17.81,32.438-17.81C526.293,591.47,564.136,615.64,564.136,615.64Z" transform="translate(455.82 -120.465)"/>
    <path id="Path_856" data-name="Path 856" class="cls-6" d="M405.85,253.057s42.734,4.877,82.731-17.6l2.741,8.8s-38.264,19.08-85.471,19.08Z" transform="translate(494.902 67.793)"/>
    <path id="Path_857" data-name="Path 857" class="cls-7" d="M405.85,345.176s42.484-3.428,89.778-26.286l1.6,3.657s-17.406,21.9-91.377,27.627Z" transform="translate(494.902 19.112)"/>
    <path id="Path_858" data-name="Path 858" class="cls-7" d="M417.94,385.862s42.484-3.428,89.778-26.282l1.6,3.657s-17.4,21.925-91.377,27.652Z" transform="translate(487.848 -4.63)"/>
    <path id="Path_859" data-name="Path 859" class="cls-7" d="M429,429.712s42.484-3.428,89.778-26.282l1.6,3.657S502.951,429,429,434.739Z" transform="translate(481.395 -30.217)"/>
    <path id="Path_860" data-name="Path 860" class="cls-7" d="M442.13,467.292s42.484-3.428,89.778-26.281l1.6,3.657s-17.4,21.917-91.377,27.656Z" transform="translate(473.733 -52.144)"/>
    <path id="Path_861" data-name="Path 861" class="cls-1" d="M454.23,508.012s42.484-3.428,89.778-26.282l1.6,3.657S528.2,507.3,454.23,513.039Z" transform="translate(466.673 -75.904)"/>
    <rect id="Rectangle_2632" data-name="Rectangle 2632" class="cls-6" width="12.558" height="12.558" transform="translate(997.549 330.642) rotate(-18.8)"/>
    <rect id="Rectangle_2633" data-name="Rectangle 2633" class="cls-6" width="12.558" height="12.558" transform="translate(1004.312 348.328) rotate(-18.8)"/>
    <rect id="Rectangle_2634" data-name="Rectangle 2634" class="cls-6" width="12.558" height="12.558" transform="translate(1015.153 382.356) rotate(-18.8)"/>
    <rect id="Rectangle_2635" data-name="Rectangle 2635" class="cls-6" width="12.558" height="12.558" transform="translate(1021.374 400.619) rotate(-18.8)"/>
    <rect id="Rectangle_2636" data-name="Rectangle 2636" class="cls-6" width="12.558" height="12.558" transform="translate(1009.825 366.7) rotate(-18.8)"/>
    <path id="Path_892" data-name="Path 892" class="cls-5" d="M720.523,449.623l33.321-12.445a3.165,3.165,0,0,1,4.078,1.858h0a3.169,3.169,0,0,1-1.862,4.078l-33.32,12.449-7.139-.716Z" transform="translate(314.165 -49.79)"/>
    <path id="Path_893" data-name="Path 893" class="cls-8" d="M756.9,438.721h0a3.174,3.174,0,0,1-1.862,4.082l-33.32,12.445-5.365-.537-.771.833,7.139.716,33.32-12.449a3.169,3.169,0,0,0,1.862-4.078h0a3.156,3.156,0,0,0-1.3-1.583,3.447,3.447,0,0,1,.292.571Z" transform="translate(314.177 -50.475)"/>
    <path id="Path_894" data-name="Path 894" class="cls-9" d="M698.223,415.58l2.22,5.939-5.86-.587L693.3,420.8l1.754-1.858Z" transform="translate(336.465 -15.748)"/>
    <path id="Path_895" data-name="Path 895" class="cls-10" d="M717.361,475.42a1.27,1.27,0,0,1,.342.375.538.538,0,0,1,0,.579,1.307,1.307,0,0,1-.325.229,1.062,1.062,0,0,0-.475.8l-1.283-.129Z" transform="translate(314.153 -72.222)"/>
    <path id="Path_896" data-name="Path 896" class="cls-11" d="M649.184,296.259l-5.619-2.741a.679.679,0,0,1-.312-.908l.6-1.225a.675.675,0,0,1,.908-.312l3.786,1.845,3.953-8.105a.683.683,0,0,1,.908-.317l1.224.6a.675.675,0,0,1,.313.908l-4.848,9.942a.679.679,0,0,1-.908.312Z" transform="translate(356.419 39.219)"/>
    <path id="Path_897" data-name="Path 897" class="cls-11" d="M678.654,380.417l-5.619-2.741a.679.679,0,0,1-.312-.908l.6-1.225a.683.683,0,0,1,.912-.312l3.782,1.845,3.948-8.114a.683.683,0,0,1,.908-.317l1.22.6a.679.679,0,0,1,.316.908l-4.848,9.942a.687.687,0,0,1-.912.312Z" transform="translate(339.224 -9.882)"/>
    <path id="Path_898" data-name="Path 898" class="cls-11" d="M665.422,338.924l-5.619-2.741a.683.683,0,0,1-.317-.908l.6-1.225a.675.675,0,0,1,.908-.312l3.786,1.845,3.953-8.118a.679.679,0,0,1,.908-.312l1.225.6a.687.687,0,0,1,.312.912l-4.852,9.95a.679.679,0,0,1-.908.312Z" transform="translate(346.946 14.331)"/>
    <path id="Path_899" data-name="Path 899" class="cls-11" d="M691.454,418.428l-5.619-2.741a.679.679,0,0,1-.312-.908l.6-1.224a.679.679,0,0,1,.908-.312l3.786,1.845,3.953-8.105a.687.687,0,0,1,.912-.317l1.22.6a.675.675,0,0,1,.312.908l-4.844,9.942A.687.687,0,0,1,691.454,418.428Z" transform="translate(331.755 -32.066)"/>
    <path id="Path_902" data-name="Path 902" class="cls-12" d="M205.781,702.248c0,1.137-.129,2.083-.287,2.083s-.283-.925-.283-2.083.158-.6.317-.6S205.781,701.107,205.781,702.248Z" transform="translate(611.975 -204.146)"/>
    <path id="Path_903" data-name="Path 903" class="cls-12" d="M207.632,705.423c-1,.546-1.874.879-1.949.737s.675-.691,1.666-1.25.6-.15.679,0S208.636,704.878,207.632,705.423Z" transform="translate(611.701 -205.962)"/>
  </g>
</svg>
