<svg id="_5315dcf4-9ab7-45f5-a3d8-2e76525705db" data-name="5315dcf4-9ab7-45f5-a3d8-2e76525705db" xmlns="http://www.w3.org/2000/svg" width="730.5" height="741.9" viewBox="0 0 730.5 741.9"><title>socialstormupdate</title><polygon points="532.4 393.6 320.6 342.6 320.6 741.9 532.4 686.4 532.4 393.6" fill="#e0e0e0"/><polygon points="532.4 393.6 320.6 342.6 320.6 741.9 532.4 686.4 532.4 393.6" opacity="0.1" style="isolation:isolate"/><polygon points="108.7 393.6 320.6 342.6 320.6 741.9 108.7 687.6 108.7 393.6" fill="#e0e0e0"/><polygon points="108.7 391.8 320.6 340.8 320.6 741.9 108.7 687.6 108.7 391.8" opacity="0.17" style="isolation:isolate"/><polygon points="319.7 344.3 431.3 251.6 643.1 306 531.5 395.4 319.7 344.3" fill="#e0e0e0"/><polygon points="1.7 308.8 110.5 395.4 322.3 344.3 214.7 253.4 1.7 308.8" fill="#e0e0e0"/><polygon points="0 307.1 111.3 395.4 323.2 344.3 213 251.6 0 307.1" opacity="0.05" style="isolation:isolate"/><polygon points="108.7 393.6 108.7 687.6 320.6 741.9 323.4 450.2 108.7 393.6" fill="#e0e0e0"/><polygon points="532.4 686.4 320.6 741.9 320.6 450.2 532.4 393.6 532.4 686.4" fill="#e0e0e0"/><polygon points="532.4 686.4 320.6 741.9 320.6 450.2 532.4 393.6 532.4 686.4" opacity="0.07" style="isolation:isolate"/><polygon points="105.9 546.1 224.6 576.1 320 498.4 320 450.7 108.1 397.5 105.9 546.1" opacity="0.1" style="isolation:isolate"/><path d="M291.93,376.83,230.51,407.7a7.5,7.5,0,0,0-4.07,7.65l-6,3a3.75,3.75,0,0,0-1.67,5l19.09,38a8.75,8.75,0,0,0,11.75,3.89l69.24-34.81a3.75,3.75,0,0,0,1.67-5L297,378.49A3.75,3.75,0,0,0,291.93,376.83ZM244.59,458l-17.4-34.62,2.23-1.12,17.4,34.62a1.25,1.25,0,1,1-2.23,1.12Zm67.57-32.56L254,454.65a8.87,8.87,0,0,0-.48-1.16L233.87,414.4,292,385.21ZM254,433.65l19-9.55a1.87,1.87,0,0,0,.83-2.51l-6.74-13.41a1.87,1.87,0,0,0-2.51-.83l-19,9.54a1.87,1.87,0,0,0-.83,2.52l6.73,13.4A1.88,1.88,0,0,0,254,433.65Zm-1.7-13.14,11.16-5.61,2.81,5.58-11.17,5.62Zm4.24,22.36-1.69-3.36a1.87,1.87,0,0,1,.83-2.51l19-9.55a1.88,1.88,0,0,1,2.52.84l1.68,3.35a1.87,1.87,0,0,1-.83,2.51l-19,9.55A1.87,1.87,0,0,1,256.58,442.87Zm26.8-13.48L281.7,426a1.87,1.87,0,0,1,.83-2.52l14.52-7.29a1.87,1.87,0,0,1,2.52.83l1.68,3.35a1.89,1.89,0,0,1-.83,2.52l-14.52,7.29A1.87,1.87,0,0,1,283.38,429.39Zm-10.11-20.1-1.68-3.35a1.89,1.89,0,0,1,.83-2.52l14.52-7.3a1.88,1.88,0,0,1,2.52.84l1.68,3.35a1.86,1.86,0,0,1-.83,2.51l-14.52,7.3A1.88,1.88,0,0,1,273.27,409.29Zm5.06,10L276.64,416a1.88,1.88,0,0,1,.84-2.52l14.52-7.3a1.87,1.87,0,0,1,2.51.84l1.69,3.35a1.88,1.88,0,0,1-.84,2.52l-14.52,7.29A1.86,1.86,0,0,1,278.33,419.34Z" transform="translate(-27.3 -10.1)" fill="#536dfe"/><path d="M145,269.91l2,7.3,11.7-3.2,2.1,13.5-10.2,2.8,10,36.5-16.1,4.4-10-36.5-7.3,2-3.6-13.1,7.3-2-2-7.2s-5.1-13.5,7.3-19.3l16.1-4.4,3.2,11.7-7.3,2A4.56,4.56,0,0,0,145,269.91Z" transform="translate(-27.3 -10.1)" fill="#535461"/><polygon points="534.1 546.1 415.4 576.1 320 498.4 320 450.7 531.9 397.5 534.1 546.1" opacity="0.1" style="isolation:isolate"/><path d="M351.9,233l11-4.4s-7.5,12.5-9.3,13.5h0a33.53,33.53,0,0,0,1.3,6.9c-4.4,98-92.7,71.6-92.7,71.6,29.5-4.8,29.8-17.4,29.8-17.4-17.6.6-23.1-9.8-23.1-9.8a7.13,7.13,0,0,0,8.7-4c-19.4-1.4-20.2-19.8-20.2-19.8,3.7,2.2,8.9,2.3,12,2.2-2.5-2.2-23.8-19.6-15.2-32.3,0,0,17,20.4,50.9,16.2l2.2-.9a17.13,17.13,0,0,1-1.4-4.9,24.24,24.24,0,0,1,19.4-28.3c15.9-3,21.2,5.5,21.2,5.5l10.1-9C356.2,218,357.1,229.6,351.9,233Z" transform="translate(-27.3 -10.1)" fill="#00aced"/><path d="M406.18,419.67c0,2.79-1.88,5-4.19,5a4.62,4.62,0,0,1-2.28-.49v-9a4.3,4.3,0,0,1,2.28-.56c2.31,0,4.19,2.24,4.19,5Zm6.95,8.85a4.3,4.3,0,0,0-2.28.56v9a4.62,4.62,0,0,0,2.28.49c2.3,0,4.19-2.23,4.19-5S415.43,428.52,413.13,428.52Zm25.12-21.35v46.51A6.34,6.34,0,0,1,431.9,460H385.39a6.34,6.34,0,0,1-6.34-6.34V407.17a6.35,6.35,0,0,1,6.34-6.35H431.9A6.35,6.35,0,0,1,438.25,407.17Zm-34.76,23.14c5.42,0,9.81-4.71,9.81-10.52s-4.39-10.52-9.81-10.52a9.84,9.84,0,0,0-4.57,1.16h-6v27.26l6.85-1.33v-6.69a11,11,0,0,0,3.76.64Zm20.93,3.34c0-5.82-4.38-10.52-9.76-10.52a9,9,0,0,0-1.27.09,10.8,10.8,0,0,1-2.54,4.42,10,10,0,0,1-6.84,3.27v20.66l6.84-1.34v-6.68a10.94,10.94,0,0,0,3.8.62C420,444.17,424.42,439.46,424.42,433.65Z" transform="translate(-27.3 -10.1)" fill="#535461"/><polygon points="108.7 393.6 0 483.4 211.8 536.7 320.6 450.2 108.7 393.6" fill="#e0e0e0"/><polygon points="532.4 393.6 642.2 483.4 431.5 536.7 320.6 450.2 532.4 393.6" fill="#e0e0e0"/><polygon points="532.4 393.6 642.2 483.4 431.5 536.7 320.6 450.2 532.4 393.6" opacity="0.07" style="isolation:isolate"/><path d="M251.1,134.3l8.2-1.6s-6.9,7.7-8.2,8.2h0a40.05,40.05,0,0,0,0,4.9c-15.7,67.3-73.6,37.5-73.6,37.5,21.1.5,22.9-8.2,22.9-8.2-12.3-1.8-14.7-9.8-14.7-9.8a5,5,0,0,0,6.5-1.6c-13.3-3.4-11.5-16.3-11.5-16.3,2.3,2,5.9,2.8,8,3.1-1.5-1.8-13.9-16.7-6.4-24.4,0,0,9.1,16.3,33.2,17.8l1.6-.3a11,11,0,0,1-.3-3.6A17.2,17.2,0,0,1,234,122.8h0c11.4,0,13.9,6.5,13.9,6.5l8.2-4.9C255.9,124.5,255.1,132.7,251.1,134.3Z" transform="translate(-27.3 -10.1)" fill="#535461" opacity="0.5" style="isolation:isolate"/><path d="M472.7,137a9.77,9.77,0,0,0-8.2-5.2c-6.3-.3-30,5.2-30,5.2s-23.7,5.5-29.3,8.4a9.87,9.87,0,0,0-5.2,8.3c-.3,6.3,2.6,18.7,2.6,18.7s2.8,12.4,5.8,18a9.7,9.7,0,0,0,8.3,5.1c6.3.3,30-5.2,30-5.2s23.7-5.5,29.3-8.4a9.72,9.72,0,0,0,5.2-8.2c.3-6.3-2.6-18.7-2.6-18.7S475.7,142.6,472.7,137Zm-37.3,39.8-5.2-22.5,22.4,6.7-17.2,15.8Z" transform="translate(-27.3 -10.1)" fill="#536dfe" opacity="0.5" style="isolation:isolate"/><path d="M507.9,252.8l3.1,7.9,12.7-4.9,3.9,14.9L516.5,275l15.3,39.6-17.4,6.7-15.3-39.6-7.9,3.1-5.5-14.2,7.9-3.1-3-7.8s-7.2-14.5,5.9-22.3l17.4-6.7,4.9,12.7-7.9,3.1A4.65,4.65,0,0,0,507.9,252.8Z" transform="translate(-27.3 -10.1)" fill="#536dfe"/><path d="M635,221.2a27.64,27.64,0,0,1-9.5.8,16.63,16.63,0,0,1-11.7-6.7,28.11,28.11,0,0,1-4.2-8.5c-1.7-5-2.2-6.6-5.7-19.5s-4-14.5-5.1-19.7a30,30,0,0,1-.9-9.4,15.1,15.1,0,0,1,2.1-6.5,17.6,17.6,0,0,1,4.6-5.2,28.11,28.11,0,0,1,8.5-4.2c5-1.7,6.6-2.2,19.5-5.7s14.5-4,19.7-5.1a27.64,27.64,0,0,1,9.5-.8,16.63,16.63,0,0,1,11.7,6.7,28.11,28.11,0,0,1,4.2,8.5c1.7,5,2.2,6.6,5.7,19.5s4,14.5,5.1,19.7a27.64,27.64,0,0,1,.8,9.5,16.63,16.63,0,0,1-6.7,11.7,28.11,28.11,0,0,1-8.5,4.2c-5,1.7-6.6,2.2-19.5,5.7s-14.5,4-19.6,5" transform="translate(-27.3 -10.1)" fill="#00aced"/><path d="M633.8,179.1a10.17,10.17,0,1,1,12.5,7.1,10,10,0,0,1-12.5-7.1h0m-5.3,1.5a15.77,15.77,0,1,0,11-19.4,15.8,15.8,0,0,0-11,19.4h0m23-23.2a3.64,3.64,0,1,0,7-2,3.55,3.55,0,0,0-4.5-2.5h0a3.61,3.61,0,0,0-2.5,4.5m-13.1,46.4a16.33,16.33,0,0,1-5.8.5,10.94,10.94,0,0,1-7.2-4,21.09,21.09,0,0,1-2.6-5.2c-1-3.1-1.3-4-3.5-11.9s-2.4-8.8-3.1-12a16.33,16.33,0,0,1-.5-5.8,10.94,10.94,0,0,1,4-7.2,21.09,21.09,0,0,1,5.2-2.6c3.1-1,4-1.3,11.9-3.5s8.8-2.4,12-3.1a16.33,16.33,0,0,1,5.8-.5,10.94,10.94,0,0,1,7.2,4,21.09,21.09,0,0,1,2.6,5.2c1,3.1,1.3,4,3.5,11.9s2.4,8.8,3.1,12a16.33,16.33,0,0,1,.5,5.8,10.94,10.94,0,0,1-4,7.2,21.09,21.09,0,0,1-5.2,2.6c-3.1,1-4,1.3-11.9,3.5s-8.9,2.4-12,3.1m-15-53.4a25.18,25.18,0,0,0-6.8,3.3,15.54,15.54,0,0,0-6.2,11,23.58,23.58,0,0,0,.6,7.5c.7,3.1.9,4.2,3.1,12.2s2.5,9,3.5,12.1a25.18,25.18,0,0,0,3.3,6.8,15.54,15.54,0,0,0,11,6.2,23.58,23.58,0,0,0,7.5-.6c3.1-.7,4.2-.9,12.2-3.1s9-2.5,12.1-3.5a25.18,25.18,0,0,0,6.8-3.3,15.54,15.54,0,0,0,6.2-11,23.58,23.58,0,0,0-.6-7.5c-.7-3.1-.9-4.2-3.1-12.2s-2.5-9-3.5-12.1a25.18,25.18,0,0,0-3.3-6.8,15.54,15.54,0,0,0-11-6.2,23.58,23.58,0,0,0-7.5.6c-3.1.7-4.2.9-12.2,3.1s-9,2.5-12.1,3.5" transform="translate(-27.3 -10.1)" fill="#fff"/><path d="M750.6,20.9l7.2-4.1s-4.1,9.4-5.2,10.3h0a42.61,42.61,0,0,0,1.5,4.7c6.2,68.9-58,58.8-58,58.8,20.2-6.2,19.2-14.9,19.2-14.9-12.2,2.1-17-4.7-17-4.7a5,5,0,0,0,5.7-3.6c-13.7.9-16-11.9-16-11.9,2.8,1.2,6.5.8,8.6.4-2-1.2-18.4-11.5-13.7-21.1,0,0,13.8,12.6,37.1,6.5l1.4-.8a12.15,12.15,0,0,1-1.4-3.3,17.17,17.17,0,0,1,10.9-21.7h0c10.9-3.6,15.2,1.8,15.2,1.8l6.2-7.2C752.2,10.1,754,18.1,750.6,20.9Z" transform="translate(-27.3 -10.1)" fill="#536dfe"/><path d="M570.59,58.87c.28-1.55-.29-2.61-2.44-2.37l-7.1.79a3.09,3.09,0,0,0-2.87,2.37s-2.63,9.22-7.1,15.51c-1.47,1.84-2.17,2.46-3.07,2.56-.45,0-1.2-.4-1.37-1.91l-1.58-14.08c-.2-1.81-.8-2.56-2.29-2.4L531.59,60.6A1.71,1.71,0,0,0,530,62.43c.19,1.71,2.79,1.82,3.6,6.62l1.17,10.47c.26,2.3-.1,2.76-1,2.86-2.41.28-9.27-7.92-13.88-17.67-.92-1.89-1.7-2.61-3.52-2.4l-7.1.8c-2,.22-2.33,1.22-2.22,2.28.22,1.89,3.68,11,13.88,22.33C527.71,95.5,536.5,99.14,544,98.3c4.53-.51,5-1.59,4.77-3.34-.9-8.06-1.4-8.77.87-9,1.05-.12,2.92.21,7.6,3.8,5.37,4.28,6.4,6.35,9.11,6.05l7.1-.8c2-.22,2.94-1.35,2.13-3.29-1.83-4.06-11.93-11.7-12.41-12.23-1.2-1.23-1-1.87-.35-3.16,0,0,7.32-13.2,7.74-17.44Z" transform="translate(-27.3 -10.1)" fill="#00aced" opacity="0.5"/><path d="M356.11,103A7.57,7.57,0,1,1,347,97.35a7.58,7.58,0,0,1,9.09,5.67Zm21.51.76a36,36,0,0,0-40.73-25.42,1.89,1.89,0,0,0-1.51,2.29l1.28,5.54a1.9,1.9,0,0,0,2.15,1.45,26.51,26.51,0,0,1,29.63,18.49,1.88,1.88,0,0,0,2.24,1.29l5.54-1.28a1.89,1.89,0,0,0,1.4-2.36ZM394.25,100A53,53,0,0,0,333,61.74,1.9,1.9,0,0,0,331.53,64l1.29,5.54A1.89,1.89,0,0,0,335,71a43.54,43.54,0,0,1,50,31.22,1.9,1.9,0,0,0,2.26,1.36l5.54-1.29A1.89,1.89,0,0,0,394.25,100Z" transform="translate(-27.3 -10.1)" fill="#535461"/></svg>