<svg xmlns="http://www.w3.org/2000/svg" xmlns:xlink="http://www.w3.org/1999/xlink" width="1920.037" height="256.707" viewBox="0 0 1920.037 256.707">
  <defs>
    <linearGradient id="linear-gradient" x1="0.918" y1="1" x2="0.109" y2="1" gradientUnits="objectBoundingBox">
      <stop offset="0" stop-color="#0463e3" stop-opacity="0.851"/>
      <stop offset="0.458" stop-color="#77cdf8" stop-opacity="0.922"/>
      <stop offset="1" stop-color="#d2e4f7" stop-opacity="0.992"/>
    </linearGradient>
  </defs>
  <g id="Group_1327" data-name="Group 1327" transform="translate(0.036 -578.027)">
    <g id="Group_1326" data-name="Group 1326">
      <g id="Group_1325" data-name="Group 1325">
        <path id="Path_1610" data-name="Path 1610" d="M13719,5665.089c-102.207-3.148-208.2,4.942-336.309,37.582s-276.457,57.963-666.686,4.747-399.3-63.068-574.592-62.576-342.4,42.788-342.4,42.788l-.051,159.483s200.443,23.5,382.273,20.875,285.352-13.1,536.932-31.7,474.443-24.219,642.141-.121S13719,5858.055,13719,5858.055" transform="translate(-11799 -5033.458)" fill="url(#linear-gradient)"/>
        <g id="Group_911" data-name="Group 911" transform="translate(54 602.384)">
          <rect id="Rectangle_1731" data-name="Rectangle 1731" width="67.14" height="67.14" rx="16" fill="#00b2e3"/>
          <path id="share-alt-solid" d="M26.426,24.024a7.176,7.176,0,0,0-4.489,1.569l-7.694-4.809a7.249,7.249,0,0,0,0-3.129l7.694-4.809A7.194,7.194,0,1,0,19.39,8.772L11.7,13.581a7.207,7.207,0,1,0,0,11.277l7.694,4.809a7.208,7.208,0,1,0,7.036-5.643Z" transform="translate(16.549 15.071)" fill="#fff"/>
        </g>
        <g id="Group_908" data-name="Group 908" transform="translate(562.057 597.028)">
          <rect id="Rectangle_1727" data-name="Rectangle 1727" width="67.102" height="67.102" rx="19" fill="#ffa400"/>
          <path id="building-solid_1_" data-name="building-solid (1)" d="M32.714,36.015h-1.5V1.8a1.8,1.8,0,0,0-1.8-1.8H4.2A1.8,1.8,0,0,0,2.4,1.8V36.015H.9a.9.9,0,0,0-.9.9v1.5H33.614v-1.5A.9.9,0,0,0,32.714,36.015ZM9.6,5.7a.9.9,0,0,1,.9-.9h3a.9.9,0,0,1,.9.9v3a.9.9,0,0,1-.9.9h-3a.9.9,0,0,1-.9-.9Zm0,7.2a.9.9,0,0,1,.9-.9h3a.9.9,0,0,1,.9.9v3a.9.9,0,0,1-.9.9h-3a.9.9,0,0,1-.9-.9Zm3.9,11.1h-3a.9.9,0,0,1-.9-.9v-3a.9.9,0,0,1,.9-.9h3a.9.9,0,0,1,.9.9v3A.9.9,0,0,1,13.506,24.01Zm5.7,12.005h-4.8v-6.3a.9.9,0,0,1,.9-.9h3a.9.9,0,0,1,.9.9Zm4.8-12.905a.9.9,0,0,1-.9.9h-3a.9.9,0,0,1-.9-.9v-3a.9.9,0,0,1,.9-.9h3a.9.9,0,0,1,.9.9Zm0-7.2a.9.9,0,0,1-.9.9h-3a.9.9,0,0,1-.9-.9v-3a.9.9,0,0,1,.9-.9h3a.9.9,0,0,1,.9.9Zm0-7.2a.9.9,0,0,1-.9.9h-3a.9.9,0,0,1-.9-.9v-3a.9.9,0,0,1,.9-.9h3a.9.9,0,0,1,.9.9Z" transform="translate(16.488 14.185)" fill="#fff"/>
        </g>
        <g id="Group_909" data-name="Group 909" transform="translate(1529.229 645.176)">
          <rect id="Rectangle_1728" data-name="Rectangle 1728" width="67.112" height="67.116" rx="18" transform="translate(0)" fill="#00af9a"/>
          <path id="list-ul-solid" d="M7.7,51.849A3.849,3.849,0,1,1,3.849,48,3.849,3.849,0,0,1,7.7,51.849ZM3.849,60.832A3.849,3.849,0,1,0,7.7,64.681,3.849,3.849,0,0,0,3.849,60.832Zm0,12.832A3.849,3.849,0,1,0,7.7,77.513,3.849,3.849,0,0,0,3.849,73.663Zm7.7-18.927H39.778a1.283,1.283,0,0,0,1.283-1.283V50.246a1.283,1.283,0,0,0-1.283-1.283H11.548a1.283,1.283,0,0,0-1.283,1.283v3.208A1.283,1.283,0,0,0,11.548,54.737Zm0,12.832H39.778a1.283,1.283,0,0,0,1.283-1.283V63.077a1.283,1.283,0,0,0-1.283-1.283H11.548a1.283,1.283,0,0,0-1.283,1.283v3.208A1.283,1.283,0,0,0,11.548,67.568Zm0,12.832H39.778a1.283,1.283,0,0,0,1.283-1.283V75.909a1.283,1.283,0,0,0-1.283-1.283H11.548a1.283,1.283,0,0,0-1.283,1.283v3.208A1.283,1.283,0,0,0,11.548,80.4Z" transform="translate(13.174 -31.366)" fill="#fff"/>
        </g>
        <g id="Group_916" data-name="Group 916" transform="translate(1288.173 669.574)">
          <rect id="Rectangle_1772" data-name="Rectangle 1772" width="67.194" height="67.195" rx="21" transform="translate(0)" fill="#ee5c5c"/>
          <path id="comments" d="M30.618,43.776C30.618,37.27,23.766,32,15.309,32S0,37.27,0,43.776a9.985,9.985,0,0,0,2.8,6.771A16.566,16.566,0,0,1,.162,54.559a.585.585,0,0,0-.11.64.576.576,0,0,0,.537.353,12.959,12.959,0,0,0,6.528-1.84,18.728,18.728,0,0,0,8.192,1.84C23.766,55.552,30.618,50.282,30.618,43.776ZM39.6,59.968a9.971,9.971,0,0,0,2.8-6.771c0-4.924-3.938-9.141-9.517-10.9a10.939,10.939,0,0,1,.1,1.479c0,7.794-7.927,14.131-17.664,14.131a22.068,22.068,0,0,1-2.333-.14c2.318,4.232,7.765,7.205,14.109,7.205a18.625,18.625,0,0,0,8.192-1.84,12.96,12.96,0,0,0,6.528,1.84.58.58,0,0,0,.537-.353.59.59,0,0,0-.11-.64A16.39,16.39,0,0,1,39.6,59.968Z" transform="translate(15.088 -16.371)" fill="#fff"/>
        </g>
        <g id="Group_914" data-name="Group 914" transform="translate(1795.998 602.377)">
          <rect id="Rectangle_1729" data-name="Rectangle 1729" width="67.194" height="67.195" rx="23" transform="translate(0)" fill="#ff8b4b"/>
          <path id="envelope" d="M39.537,73.981a.474.474,0,0,1,.764.37v16.1a3.779,3.779,0,0,1-3.778,3.778H3.778A3.779,3.779,0,0,1,0,90.448V74.359a.471.471,0,0,1,.764-.37c1.763,1.37,4.1,3.109,12.13,8.942,1.661,1.212,4.463,3.762,7.257,3.747,2.81.024,5.667-2.582,7.265-3.747C35.444,77.1,37.774,75.35,39.537,73.981ZM20.151,84.15c1.826.031,4.455-2.3,5.778-3.259,10.445-7.58,11.24-8.241,13.649-10.13a1.884,1.884,0,0,0,.724-1.488v-1.5A3.779,3.779,0,0,0,36.523,64H3.778A3.779,3.779,0,0,0,0,67.778v1.5a1.9,1.9,0,0,0,.724,1.488c2.409,1.881,3.2,2.55,13.649,10.13,1.322.96,3.951,3.29,5.778,3.259Z" transform="translate(13.313 -45.652)" fill="#fff"/>
        </g>
        <g id="Group_913" data-name="Group 913" transform="translate(803.153 630.301)">
          <g id="Group_179" data-name="Group 179" transform="translate(0 0)">
            <rect id="Rectangle_1785" data-name="Rectangle 1785" width="67.194" height="67.195" rx="23" transform="translate(0)" fill="#6cbc6c"/>
          </g>
          <path id="map-solid" d="M0,38.316V63.854a1.18,1.18,0,0,0,1.618,1.1L11.8,60.316V32L1.484,36.126A2.36,2.36,0,0,0,0,38.316Zm14.158,22,14.158,4.719V36.719L14.158,32Zm26.7-28.23-10.18,4.634V65.035L40.99,60.909a2.359,2.359,0,0,0,1.484-2.191V33.181A1.18,1.18,0,0,0,40.856,32.086Z" transform="translate(12.165 -14.889)" fill="#fff"/>
        </g>
        <g id="Group_915" data-name="Group 915" transform="translate(319.558 578.027)">
          <rect id="Rectangle_2389" data-name="Rectangle 2389" width="67.194" height="67.195" rx="23" transform="translate(0 0)" fill="#4f7de6"/>
          <path id="book-solid" d="M33.66,27.048V1.8a1.8,1.8,0,0,0-1.8-1.8H7.213A7.215,7.215,0,0,0,0,7.213V31.256a7.215,7.215,0,0,0,7.213,7.213H31.857a1.8,1.8,0,0,0,1.8-1.8v-1.2a1.817,1.817,0,0,0-.669-1.405,16.756,16.756,0,0,1,0-5.612,1.791,1.791,0,0,0,.669-1.4ZM9.617,10.068a.452.452,0,0,1,.451-.451H26a.452.452,0,0,1,.451.451v1.5a.452.452,0,0,1-.451.451H10.068a.452.452,0,0,1-.451-.451Zm0,4.809a.452.452,0,0,1,.451-.451H26a.452.452,0,0,1,.451.451v1.5A.452.452,0,0,1,26,16.83H10.068a.452.452,0,0,1-.451-.451ZM28.656,33.66H7.213a2.4,2.4,0,1,1,0-4.809H28.656A27.05,27.05,0,0,0,28.656,33.66Z" transform="translate(16.562 14.412)" fill="#fff"/>
        </g>
        <g id="Group_912" data-name="Group 912" transform="translate(1045.663 658.613)">
          <g id="Group_764" data-name="Group 764" transform="translate(0 0)">
            <g id="Group_173" data-name="Group 173">
              <rect id="Rectangle_1773" data-name="Rectangle 1773" width="67.194" height="67.195" rx="22" fill="#7984a7"/>
            </g>
            <g id="Group_765" data-name="Group 765" transform="translate(14.363 14.437)">
              <path id="globe" d="M25.925,19.711C24.808,12.831,22.173,8,19.107,8s-5.7,4.831-6.818,11.711Zm-14.215,7.4a48.292,48.292,0,0,0,.254,4.931H26.241a48.291,48.291,0,0,0,.254-4.931,48.292,48.292,0,0,0-.254-4.931H11.965A48.292,48.292,0,0,0,11.711,27.107Zm25.016-7.4A19.147,19.147,0,0,0,24.554,8.8c1.88,2.6,3.174,6.526,3.852,10.91ZM13.652,8.8A19.135,19.135,0,0,0,1.487,19.711H9.808c.67-4.384,1.965-8.306,3.845-10.91Zm23.9,13.375H28.714c.162,1.618.254,3.274.254,4.931s-.092,3.313-.254,4.931h8.829a18.943,18.943,0,0,0,.663-4.931A19.274,19.274,0,0,0,37.552,22.176ZM9.245,27.107c0-1.656.092-3.313.254-4.931H.663a18.679,18.679,0,0,0,0,9.862H9.492C9.338,30.42,9.245,28.764,9.245,27.107Zm3.043,7.4c1.117,6.88,3.752,11.711,6.818,11.711s5.7-4.831,6.818-11.711Zm12.273,10.91A19.166,19.166,0,0,0,36.735,34.5H28.414C27.736,38.888,26.442,42.809,24.562,45.413ZM1.487,34.5A19.148,19.148,0,0,0,13.66,45.413c-1.88-2.6-3.174-6.526-3.852-10.91H1.487Z" transform="translate(0 -8)" fill="#fff"/>
            </g>
          </g>
        </g>
      </g>
    </g>
  </g>
</svg>
