<svg xmlns="http://www.w3.org/2000/svg" viewBox="0 0 122.27 122.27">
  <defs>
    <style>
      .cls-1 {
        fill: #7984a7;
      }

      .cls-2 {
        fill: #fff;
      }
    </style>
  </defs>
  <g id="Group_249" data-name="Group 249" transform="translate(-981.863 -639.193)">
    <g id="Group_173" data-name="Group 173" transform="translate(-197 71)">
      <rect id="Rectangle_1773" data-name="Rectangle 1773" class="cls-1" width="122.27" height="122.27" rx="38" transform="translate(1178.863 568.193)"/>
    </g>
    <path id="globe" class="cls-2" d="M47.176,29.31C45.143,16.79,40.348,8,34.768,8S24.394,16.79,22.361,29.31ZM21.31,42.768a87.873,87.873,0,0,0,.463,8.972H47.75a87.873,87.873,0,0,0,.463-8.972A87.874,87.874,0,0,0,47.75,33.8H21.772A87.873,87.873,0,0,0,21.31,42.768ZM66.831,29.31A34.842,34.842,0,0,0,44.68,9.458C48.1,14.2,50.456,21.333,51.69,29.31ZM24.843,9.458A34.818,34.818,0,0,0,2.706,29.31H17.847c1.22-7.977,3.575-15.113,7-19.852ZM68.331,33.8H52.251c.294,2.944.463,5.958.463,8.972s-.168,6.028-.463,8.972H68.317a34.468,34.468,0,0,0,1.206-8.972A35.071,35.071,0,0,0,68.331,33.8ZM16.823,42.768c0-3.014.168-6.028.463-8.972H1.206a33.989,33.989,0,0,0,0,17.945H17.272C16.992,48.8,16.823,45.783,16.823,42.768Zm5.538,13.459c2.033,12.519,6.828,21.31,12.407,21.31s10.374-8.79,12.407-21.31ZM44.694,76.079A34.875,34.875,0,0,0,66.845,56.227H51.7C50.47,64.2,48.115,71.34,44.694,76.079ZM2.706,56.227A34.842,34.842,0,0,0,24.857,76.079c-3.421-4.739-5.776-11.875-7.01-19.852H2.706Z" transform="translate(1008 657.463)"/>
  </g>
</svg>
